<svg width="470" height="200" viewBox="0 0 470 200" fill="none" xmlns="http://www.w3.org/2000/svg">
<path d="M469.256 30.2297H469.1L469.256 30.2038C469.256 30.0311 469.256 29.8584 469.247 29.6942C469.247 29.5474 469.239 29.4006 469.23 29.2538V29.1674C469.221 28.986 469.204 28.8133 469.195 28.6319C469.169 28.2519 469.143 27.9064 469.109 27.5782C469.091 27.44 469.083 27.3018 469.065 27.1636V27.1031C469.048 27.0168 469.039 26.9304 469.031 26.8527L468.97 26.4035C468.953 26.274 468.935 26.1444 468.909 26.0149C468.883 25.8767 468.866 25.7298 468.84 25.5916L468.719 24.9266C468.693 24.7798 468.667 24.6416 468.632 24.4602C468.606 24.322 468.58 24.1838 468.545 24.0629C468.519 23.9247 468.485 23.7779 468.45 23.6397V23.5965C468.415 23.5015 468.398 23.4065 468.372 23.3115C468.346 23.2164 468.329 23.1301 468.303 23.0523C468.294 23.0005 468.277 22.9401 468.268 22.9055C468.242 22.7932 468.208 22.6809 468.182 22.5773C468.156 22.4909 468.138 22.4046 468.112 22.3096L467.852 21.4286C467.809 21.2904 467.766 21.1522 467.722 21.014C467.688 20.8931 467.644 20.7808 467.601 20.6685C467.558 20.5476 467.514 20.418 467.471 20.3058C467.428 20.1935 467.393 20.0812 467.35 19.9775C467.306 19.8566 467.254 19.7271 467.202 19.5889C467.124 19.3902 467.047 19.2002 466.969 19.0102L466.778 18.5438C466.735 18.4488 466.7 18.3538 466.648 18.2501L466.631 18.2069C466.605 18.1465 466.57 18.0774 466.544 18.0169L466.405 17.7233C466.336 17.5678 466.258 17.4123 466.189 17.2655C465.747 16.3672 465.262 15.4776 464.733 14.6226C459.179 5.59682 449.536 0.138193 438.948 0C438.679 0 438.411 0 438.151 0C427.528 0.129556 417.867 5.6141 412.322 14.6657C409.454 19.3384 407.903 24.7193 407.834 30.2211C407.834 30.3507 407.834 30.4889 407.834 30.6184C407.834 30.748 407.834 30.8862 407.834 31.0157C407.903 36.673 409.532 42.1748 412.547 46.9425C418.136 55.7696 427.701 61.1159 438.142 61.2455C438.272 61.2455 438.411 61.2455 438.541 61.2455C438.671 61.2455 438.809 61.2455 438.939 61.2455C449.501 61.1159 459.127 55.6832 464.69 46.7093C464.88 46.407 465.062 46.1047 465.253 45.7678C465.426 45.4569 465.574 45.1978 465.704 44.9559L465.721 44.9214C465.842 44.6968 465.963 44.4464 466.128 44.1354C466.197 43.9972 466.267 43.859 466.345 43.6863L466.388 43.5999C466.457 43.4445 466.535 43.289 466.596 43.1422C466.665 42.9867 466.735 42.8312 466.795 42.6844C466.865 42.5376 466.925 42.3821 467.003 42.2007C467.055 42.0625 467.116 41.9243 467.168 41.7948C467.306 41.4493 467.428 41.1125 467.54 40.7842C467.601 40.6288 467.653 40.4733 467.705 40.3092L467.722 40.266C467.774 40.1106 467.826 39.9551 467.87 39.8083C467.922 39.6442 467.974 39.48 468.017 39.3159C468.06 39.1605 468.112 39.005 468.156 38.8409L468.294 38.3227C468.381 37.9858 468.459 37.6576 468.537 37.3035C468.571 37.1394 468.606 36.9667 468.641 36.8198C468.667 36.6989 468.693 36.578 468.71 36.4743C468.736 36.3448 468.762 36.2239 468.779 36.103C468.797 35.9907 468.823 35.8784 468.84 35.7488C468.866 35.5934 468.892 35.4379 468.918 35.2565C468.944 35.1011 468.961 34.9456 468.987 34.7728L469.005 34.6692C469.022 34.5224 469.039 34.3755 469.057 34.2373C469.083 34.0646 469.1 33.8832 469.117 33.7105C469.135 33.5464 469.152 33.3909 469.161 33.2095C469.161 33.1491 469.169 33.0973 469.169 33.0541C469.178 32.9504 469.187 32.8468 469.195 32.7518C469.204 32.6395 469.213 32.5272 469.213 32.4236L469.247 31.5771C469.247 31.4044 469.256 31.2316 469.256 31.0416C469.256 30.9121 469.256 30.7739 469.256 30.6443C469.256 30.5148 469.256 30.3766 469.256 30.2557V30.2297ZM468.268 32.9591L468.251 33.1318C468.242 33.2873 468.225 33.4341 468.208 33.5896C468.19 33.7537 468.173 33.9264 468.156 34.0992C468.138 34.246 468.121 34.3928 468.104 34.531C468.104 34.5742 468.095 34.6174 468.086 34.6433C468.069 34.7901 468.043 34.9369 468.026 35.0838C468.026 35.1097 468.026 35.127 468.026 35.1356C468.008 35.2824 467.982 35.4206 467.956 35.5847C467.939 35.697 467.922 35.8007 467.896 35.9216C467.878 36.0339 467.852 36.1461 467.826 36.2757C467.809 36.3793 467.783 36.4916 467.757 36.6125C467.731 36.768 467.696 36.9235 467.662 37.0703C467.662 37.0876 467.653 37.1135 467.644 37.1308C467.575 37.4417 467.497 37.7526 467.419 38.0722L467.28 38.5904C467.237 38.7373 467.194 38.8927 467.15 39.0396C467.107 39.195 467.055 39.3591 467.003 39.5232C466.96 39.6528 466.925 39.7823 466.882 39.9119L466.865 39.9551C466.865 39.9551 466.847 40.0069 466.847 40.0155C466.795 40.1624 466.752 40.3092 466.691 40.4647C466.579 40.7842 466.457 41.1125 466.327 41.4493C466.275 41.5789 466.223 41.7084 466.154 41.8812C466.102 42.0193 466.041 42.1575 465.972 42.3044C465.911 42.4512 465.842 42.6067 465.773 42.7535C465.704 42.9003 465.634 43.0558 465.574 43.194L465.53 43.2804C465.461 43.4272 465.392 43.5654 465.322 43.7122C465.166 44.0231 465.045 44.2563 464.941 44.4636C464.924 44.4895 464.915 44.5068 464.906 44.5241C464.785 44.7573 464.646 45.0078 464.473 45.3101C464.291 45.6296 464.109 45.9319 463.927 46.2256C458.529 54.9318 449.18 60.209 438.922 60.3386C438.801 60.3386 438.679 60.3386 438.558 60.3386H438.489C438.385 60.3386 438.281 60.3386 438.168 60.3386C428.031 60.2177 418.742 55.0268 413.319 46.4588C410.39 41.838 408.804 36.4916 408.744 30.9984C408.744 30.8689 408.744 30.748 408.744 30.6271C408.744 30.5061 408.744 30.3766 408.744 30.247C408.813 24.9007 410.321 19.6839 413.102 15.1494C418.491 6.36552 427.866 1.04509 438.177 0.915529C438.298 0.915529 438.419 0.915529 438.549 0.915529C438.679 0.915529 438.801 0.915529 438.931 0.915529C449.215 1.04509 458.573 6.34825 463.971 15.0976C464.482 15.9268 464.958 16.7905 465.383 17.6628C465.452 17.8096 465.522 17.9478 465.591 18.1033L465.73 18.397C465.756 18.4574 465.781 18.5179 465.807 18.5697L465.834 18.6302C465.877 18.7165 465.911 18.8029 465.946 18.8979L466.137 19.3557C466.215 19.5371 466.293 19.7271 466.371 19.9344C466.414 20.0553 466.466 20.1676 466.509 20.2971C466.553 20.4008 466.587 20.5044 466.631 20.6167C466.665 20.7117 466.7 20.7981 466.726 20.8931L466.752 20.9708C466.787 21.0831 466.83 21.1867 466.865 21.3077C466.908 21.4372 466.951 21.5754 466.995 21.705L467.254 22.5859L467.324 22.8278C467.35 22.9314 467.376 23.0264 467.41 23.1473C467.419 23.1905 467.436 23.2251 467.445 23.2769C467.471 23.3633 467.488 23.4496 467.514 23.5447C467.532 23.631 467.558 23.7088 467.575 23.8038V23.8556C467.618 23.9938 467.653 24.1233 467.679 24.2702C467.714 24.3997 467.74 24.5379 467.766 24.6675V24.7107C467.8 24.8229 467.818 24.9439 467.844 25.0561L467.965 25.7557C467.991 25.8939 468.008 26.0321 468.034 26.1703C468.052 26.2912 468.069 26.4208 468.086 26.5504L468.104 26.7145C468.112 26.7836 468.121 26.8613 468.13 26.9304V26.9908C468.147 27.0859 468.164 27.1809 468.173 27.2931C468.19 27.4227 468.199 27.5609 468.216 27.6904C468.251 28.01 468.277 28.3469 468.303 28.7096C468.312 28.8824 468.32 29.0551 468.329 29.2192V29.3056C468.338 29.4438 468.346 29.5906 468.346 29.7374C468.346 29.9015 468.355 30.0656 468.355 30.2643C468.355 30.3852 468.355 30.5148 468.355 30.6357C468.355 30.7566 468.355 30.8862 468.355 31.0071V31.0416C468.355 31.2057 468.355 31.3698 468.346 31.5339L468.312 32.3631C468.312 32.4667 468.303 32.5618 468.294 32.6827C468.294 32.7777 468.286 32.8727 468.277 32.9763L468.268 32.9591Z" fill="#1B3864"/>
<path d="M466.223 30.2813L466.379 30.2554C466.379 30.0999 466.379 29.9445 466.37 29.789C466.37 29.6249 466.362 29.4694 466.353 29.3053C466.353 29.1412 466.336 28.9857 466.327 28.8216C466.31 28.4934 466.284 28.1652 466.249 27.8716C466.24 27.742 466.223 27.6211 466.206 27.5002C466.197 27.4138 466.188 27.3274 466.171 27.2151L466.128 26.8437C466.11 26.7142 466.093 26.5846 466.076 26.4551C466.058 26.3255 466.032 26.196 466.015 26.0664L465.911 25.4618C465.885 25.3323 465.859 25.2027 465.824 25.0386C465.798 24.9177 465.772 24.7968 465.746 24.6845C465.72 24.5549 465.686 24.4254 465.66 24.2958C465.634 24.2008 465.616 24.0972 465.59 24.0108C465.573 23.9244 465.547 23.838 465.53 23.769C465.521 23.7171 465.504 23.6653 465.495 23.6394C465.469 23.5358 465.443 23.4407 465.417 23.3371C465.4 23.2594 465.374 23.1816 465.348 23.0953L465.105 22.3006C465.071 22.1711 465.027 22.0502 464.984 21.9293C464.949 21.8256 464.915 21.7133 464.88 21.6097C464.845 21.4974 464.802 21.3851 464.767 21.2728C464.733 21.1692 464.689 21.0655 464.655 20.9792C464.611 20.8669 464.568 20.7546 464.525 20.6251C464.455 20.4437 464.386 20.2709 464.317 20.0982L464.126 19.6318C464.091 19.5627 464.065 19.485 464.022 19.4072C463.987 19.3381 463.962 19.269 463.927 19.1999L463.806 18.9322C463.745 18.794 463.676 18.6558 463.606 18.5176C463.26 17.8094 462.887 17.1184 462.489 16.4534C462.376 16.2633 462.194 16.1338 461.977 16.0733C461.761 16.0215 461.535 16.056 461.345 16.177L451.719 22.1365L446.78 25.2804C443.02 22.6807 440.949 18.8631 439.372 4.60329C439.329 4.18871 438.973 3.86914 438.54 3.86914C438.107 3.86914 437.769 4.18008 437.726 4.60329C436.469 15.9524 435.04 21.9552 430.344 25.2632L427.961 23.8726L419.444 18.7076L415.744 16.2547C415.553 16.1338 415.32 16.0906 415.103 16.1338C414.886 16.1856 414.696 16.3238 414.583 16.5138C412.114 20.6682 410.779 25.4273 410.719 30.2727C410.719 30.3936 410.719 30.5145 410.719 30.6354C410.719 30.7563 410.719 30.8773 410.719 30.9895C410.779 35.9818 412.192 40.8617 414.791 45.1025C414.904 45.2925 415.086 45.4221 415.302 45.4739C415.519 45.5257 415.744 45.4912 415.926 45.3703L425.552 39.4107L430.612 36.1804C435.1 39.5143 436.487 45.4566 437.726 56.6416C437.769 57.0562 438.124 57.3758 438.557 57.3758C438.991 57.3758 439.329 57.0562 439.372 56.6416C440.594 45.5776 441.945 39.6957 446.286 36.3273L451.623 39.2984L461.302 45.1716C461.492 45.2839 461.717 45.3184 461.925 45.2666C462.142 45.2148 462.324 45.0852 462.437 44.8952C462.541 44.7225 462.645 44.5411 462.749 44.3684C462.904 44.092 463.034 43.8588 463.173 43.5997C463.303 43.3665 463.424 43.1246 463.537 42.8828C463.598 42.7619 463.658 42.6409 463.71 42.52L463.762 42.4077C463.832 42.2696 463.892 42.1314 463.953 41.9932C464.013 41.855 464.074 41.7081 464.135 41.57C464.195 41.4404 464.247 41.3022 464.299 41.1813L464.317 41.1381C464.36 41.0258 464.403 40.9135 464.464 40.7753C464.585 40.4644 464.707 40.1448 464.811 39.8339C464.863 39.6957 464.906 39.5575 464.967 39.3848C465.01 39.2466 465.062 39.0998 465.105 38.9616C465.157 38.8147 465.201 38.6593 465.244 38.5124C465.287 38.3742 465.33 38.2274 465.365 38.0892L465.495 37.6142C465.573 37.3119 465.642 37.0182 465.72 36.6814L465.824 36.1891C465.842 36.1027 465.859 36.0163 465.876 35.9386C465.902 35.8263 465.92 35.7054 465.937 35.6017L466.067 34.833C466.084 34.6948 466.11 34.5567 466.128 34.3839V34.3235C466.154 34.1766 466.171 34.0384 466.188 33.9002V33.8571C466.214 33.7102 466.223 33.572 466.24 33.4252C466.258 33.2784 466.266 33.1402 466.284 32.9674C466.284 32.9156 466.292 32.8638 466.292 32.8292C466.292 32.7342 466.31 32.6392 466.31 32.5529C466.31 32.4578 466.327 32.3628 466.327 32.2506L466.362 31.4905C466.362 31.335 466.37 31.1796 466.37 31.0068C466.37 30.8859 466.37 30.765 466.37 30.6441C466.37 30.5231 466.37 30.4022 466.37 30.2899H466.214L466.223 30.2813ZM464.984 36.5086H464.828C464.767 36.8023 464.698 37.0873 464.62 37.3723L464.507 37.7783C464.507 37.7783 464.49 37.8215 464.49 37.8387C464.455 37.9769 464.412 38.1065 464.369 38.2447C464.325 38.3915 464.282 38.5297 464.239 38.6765C464.195 38.8147 464.152 38.9443 464.109 39.0738C464.1 39.0998 464.091 39.117 464.091 39.1257C464.048 39.2552 464.005 39.3848 463.953 39.523C463.849 39.8253 463.736 40.1276 463.615 40.4299L463.598 40.473C463.554 40.5767 463.52 40.6717 463.485 40.7667L463.468 40.8099C463.416 40.9394 463.364 41.069 463.303 41.1986C463.242 41.3368 463.19 41.4663 463.121 41.6045C463.06 41.7427 463 41.8723 462.939 42.0018L462.904 42.0795C462.844 42.2091 462.783 42.3387 462.714 42.4682C462.601 42.7014 462.48 42.9346 462.367 43.1505C462.359 43.1678 462.341 43.1937 462.341 43.2024C462.229 43.4097 462.107 43.6429 461.951 43.9106C461.865 44.0574 461.778 44.2043 461.691 44.3511L452.065 38.5124L447.083 35.7399C450.731 33.3561 456.302 32.3542 464.62 31.4387C465.036 31.3955 465.357 31.0414 465.357 30.6095C465.357 30.1777 465.036 29.8408 464.62 29.7976C456.64 28.9253 451.26 27.9838 447.594 25.8159L452.178 22.8966L461.726 16.9802C462.099 17.6021 462.445 18.2585 462.766 18.9149C462.826 19.0445 462.896 19.174 462.956 19.3122L463.078 19.58C463.095 19.6232 463.121 19.6663 463.138 19.7182L463.173 19.7959C463.208 19.865 463.234 19.9341 463.26 19.9946L463.45 20.4437C463.52 20.6078 463.589 20.7719 463.658 20.9619C463.702 21.0655 463.745 21.1692 463.78 21.2901C463.814 21.3851 463.849 21.4801 463.884 21.5751C463.918 21.6788 463.962 21.7911 463.996 21.9033C464.031 21.9984 464.065 22.102 464.1 22.2056C464.143 22.3266 464.178 22.4475 464.213 22.5598L464.447 23.3371C464.464 23.4062 464.49 23.4839 464.507 23.5617L464.525 23.6135C464.542 23.6912 464.568 23.769 464.594 23.8726C464.603 23.9071 464.611 23.9417 464.62 23.9849C464.637 24.0626 464.663 24.1403 464.681 24.2267C464.707 24.3131 464.724 24.4081 464.75 24.5031C464.776 24.624 464.811 24.7449 464.837 24.8745C464.863 24.9954 464.889 25.1163 464.923 25.2718C464.949 25.3927 464.975 25.5136 464.993 25.6346L465.097 26.2219C465.114 26.3255 465.131 26.4205 465.149 26.5242V26.5933C465.175 26.7142 465.192 26.8351 465.218 26.9733L465.235 27.077C465.244 27.146 465.252 27.2065 465.261 27.2756V27.3274C465.278 27.4138 465.287 27.5088 465.296 27.6038C465.313 27.7247 465.322 27.8456 465.33 27.9666C465.356 28.2602 465.382 28.5712 465.408 28.8907C465.417 29.0462 465.426 29.2017 465.434 29.3571C465.434 29.5126 465.452 29.6681 465.452 29.8235C465.452 29.9704 465.452 30.1172 465.46 30.2986C465.46 30.4109 465.46 30.5231 465.46 30.6354C465.46 30.7477 465.46 30.86 465.46 30.9809V31.0068C465.46 31.1536 465.46 31.3091 465.452 31.4473L465.417 32.1987C465.417 32.2851 465.408 32.3801 465.4 32.4838C465.4 32.5701 465.391 32.6565 465.382 32.7515V32.907C465.356 33.0452 465.348 33.1747 465.33 33.3216C465.322 33.4511 465.305 33.5807 465.287 33.7361V33.7793C465.27 33.8916 465.253 34.0039 465.244 34.1075V34.168C465.244 34.168 465.227 34.2284 465.218 34.2716C465.201 34.4012 465.183 34.5394 465.157 34.6603V34.738C465.123 34.859 465.105 34.9799 465.088 35.1008V35.1612C465.062 35.2476 465.045 35.3254 465.027 35.4204C465.01 35.524 464.993 35.6277 464.967 35.7399C464.949 35.8177 464.941 35.8868 464.923 35.9731L464.906 36.0336C464.88 36.1718 464.845 36.31 464.819 36.4654L464.967 36.5L464.984 36.5086ZM411.611 30.9723C411.611 30.86 411.611 30.7477 411.611 30.6354C411.611 30.5231 411.611 30.4109 411.611 30.2899C411.672 25.6259 412.945 21.0483 415.311 17.0493L418.959 19.4677L427.207 24.4686L428.1 25.0041L428.238 25.0732L429.503 25.8073C425.838 27.9752 420.449 28.9166 412.46 29.7976C412.044 29.8408 411.724 30.1949 411.724 30.6268C411.724 31.0586 412.044 31.3955 412.46 31.4387C420.657 32.3369 426.15 33.3129 429.815 35.619L425.076 38.642L415.519 44.5584C413.023 40.473 411.681 35.7745 411.62 30.9723H411.611Z" fill="#1B3864"/>
<path d="M171.036 199.49L177.127 184.678H178.314L184.336 199.49H182.629L177.378 186.405H178.002L172.708 199.49H171.027H171.036ZM173.817 195.638V194.239H181.589V195.638H173.817Z" fill="#1B3864"/>
<path d="M189.482 199.49L185.574 189.376H187.151L190.236 197.771L189.672 197.788L192.74 189.376H193.623L196.691 197.788L196.127 197.771L199.195 189.376H200.789L196.855 199.49H195.972L192.844 191.207H193.493L190.383 199.49H189.473H189.482Z" fill="#1B3864"/>
<path d="M208.067 199.697C207.105 199.697 206.239 199.464 205.476 198.998C204.714 198.531 204.116 197.901 203.674 197.115C203.232 196.329 203.016 195.439 203.016 194.446C203.016 193.453 203.232 192.537 203.674 191.742C204.116 190.948 204.714 190.317 205.476 189.851C206.239 189.385 207.097 189.151 208.05 189.151C208.829 189.151 209.523 189.307 210.129 189.618C210.744 189.929 211.238 190.361 211.619 190.913C212.001 191.466 212.235 192.105 212.321 192.839V196.001C212.235 196.735 212.001 197.374 211.619 197.935C211.238 198.497 210.744 198.929 210.129 199.239C209.514 199.55 208.829 199.706 208.067 199.706V199.697ZM208.301 198.255C209.349 198.255 210.198 197.901 210.84 197.201C211.481 196.502 211.801 195.569 211.801 194.429C211.801 193.669 211.654 192.995 211.359 192.416C211.065 191.837 210.658 191.38 210.129 191.06C209.601 190.741 208.985 190.576 208.284 190.576C207.582 190.576 206.923 190.741 206.369 191.069C205.814 191.397 205.372 191.855 205.052 192.433C204.731 193.012 204.567 193.677 204.567 194.429C204.567 195.18 204.731 195.836 205.052 196.407C205.372 196.977 205.814 197.434 206.377 197.763C206.941 198.091 207.582 198.255 208.301 198.255ZM211.715 199.481V196.769L212.018 194.273L211.715 191.837V189.359H213.222V199.473H211.715V199.481Z" fill="#1B3864"/>
<path d="M217.547 199.49V184.254H219.054V199.49H217.547ZM224.089 199.49L218.907 194.299L224.002 189.367H225.882L220.337 194.687L220.397 193.824L226.099 199.481H224.089V199.49Z" fill="#1B3864"/>
<path d="M233.29 199.697C232.268 199.697 231.358 199.464 230.552 199.006C229.746 198.549 229.105 197.918 228.637 197.115C228.169 196.311 227.936 195.405 227.936 194.403C227.936 193.401 228.169 192.52 228.629 191.725C229.088 190.931 229.712 190.3 230.509 189.842C231.297 189.385 232.19 189.151 233.169 189.151C234.087 189.151 234.91 189.359 235.621 189.773C236.331 190.188 236.895 190.766 237.302 191.509C237.709 192.252 237.917 193.099 237.917 194.057C237.917 194.169 237.917 194.308 237.9 194.455C237.882 194.601 237.856 194.783 237.813 194.981H229.027V193.686H236.999L236.461 194.161C236.479 193.418 236.349 192.77 236.08 192.235C235.811 191.699 235.43 191.285 234.936 190.982C234.443 190.689 233.836 190.542 233.134 190.542C232.432 190.542 231.757 190.697 231.211 191.017C230.665 191.337 230.232 191.777 229.928 192.338C229.616 192.908 229.46 193.574 229.46 194.351C229.46 195.128 229.625 195.811 229.946 196.398C230.266 196.985 230.725 197.443 231.306 197.771C231.887 198.099 232.562 198.263 233.325 198.263C233.94 198.263 234.512 198.151 235.032 197.927C235.552 197.702 235.985 197.374 236.349 196.925L237.319 197.918C236.843 198.479 236.253 198.911 235.56 199.222C234.858 199.533 234.113 199.689 233.307 199.689L233.29 199.697Z" fill="#1B3864"/>
<path d="M241.477 199.49V189.376H242.984V199.49H241.477ZM248.859 199.49V193.548C248.859 192.658 248.599 191.941 248.07 191.389C247.542 190.836 246.848 190.559 245.991 190.559C245.402 190.559 244.882 190.689 244.44 190.948C243.989 191.207 243.643 191.561 243.383 192.002C243.123 192.451 242.993 192.96 242.993 193.531L242.3 193.142C242.3 192.382 242.482 191.699 242.837 191.095C243.201 190.49 243.686 190.015 244.292 189.678C244.908 189.333 245.609 189.16 246.398 189.16C247.186 189.16 247.862 189.35 248.469 189.722C249.075 190.093 249.543 190.594 249.881 191.224C250.219 191.855 250.392 192.546 250.392 193.289V199.49H248.859Z" fill="#1B3864"/>
<path d="M264.473 199.49L259.682 184.678H261.259L265.296 197.417H264.82L268.814 184.678H270.001L274.021 197.417H273.527L277.565 184.678H279.159L274.342 199.49H273.172L269.178 186.768H269.628L265.634 199.49H264.464H264.473Z" fill="#1B3864"/>
<path d="M282.762 199.49V184.254H284.269V199.49H282.762ZM290.144 199.49V193.547C290.144 192.658 289.884 191.941 289.355 191.388C288.827 190.835 288.134 190.559 287.276 190.559C286.687 190.559 286.167 190.689 285.725 190.948C285.274 191.207 284.928 191.561 284.668 192.001C284.408 192.45 284.278 192.96 284.278 193.53L283.585 193.141C283.585 192.381 283.767 191.699 284.122 191.094C284.486 190.49 284.971 190.015 285.578 189.678C286.193 189.333 286.895 189.16 287.683 189.16C288.472 189.16 289.147 189.332 289.754 189.687C290.36 190.041 290.828 190.524 291.166 191.138C291.504 191.751 291.677 192.476 291.677 193.288V199.49H290.144Z" fill="#1B3864"/>
<path d="M300.163 199.697C299.201 199.697 298.334 199.464 297.572 198.998C296.81 198.531 296.212 197.901 295.77 197.115C295.328 196.329 295.111 195.439 295.111 194.446C295.111 193.453 295.328 192.537 295.77 191.742C296.212 190.948 296.81 190.317 297.572 189.851C298.334 189.385 299.192 189.151 300.145 189.151C300.925 189.151 301.618 189.307 302.225 189.618C302.84 189.929 303.334 190.361 303.715 190.913C304.096 191.466 304.33 192.105 304.417 192.839V196.001C304.33 196.735 304.096 197.374 303.715 197.935C303.334 198.497 302.84 198.929 302.225 199.239C301.61 199.55 300.925 199.706 300.163 199.706V199.697ZM300.397 198.255C301.445 198.255 302.294 197.901 302.935 197.201C303.576 196.502 303.897 195.569 303.897 194.429C303.897 193.669 303.75 192.995 303.455 192.416C303.161 191.837 302.753 191.38 302.225 191.06C301.696 190.741 301.081 190.576 300.379 190.576C299.677 190.576 299.019 190.741 298.464 191.069C297.91 191.397 297.468 191.855 297.147 192.433C296.827 193.012 296.662 193.677 296.662 194.429C296.662 195.18 296.827 195.836 297.147 196.407C297.468 196.977 297.91 197.434 298.473 197.763C299.036 198.091 299.677 198.255 300.397 198.255ZM303.81 199.481V196.769L304.114 194.273L303.81 191.837V189.359H305.318V199.473H303.81V199.481Z" fill="#1B3864"/>
<path d="M308.566 190.723V189.367H315.195V190.723H308.566ZM311.14 199.481V185.101H312.647V199.481H311.14Z" fill="#1B3864"/>
<path d="M319.015 189.022L318.625 184.246H320.349L319.959 189.022H319.006H319.015Z" fill="#1B3864"/>
<path d="M326.873 199.697C326.327 199.697 325.799 199.619 325.296 199.473C324.793 199.326 324.334 199.11 323.927 198.833C323.52 198.557 323.165 198.237 322.861 197.866L323.832 196.873C324.239 197.365 324.69 197.719 325.201 197.961C325.712 198.194 326.284 198.315 326.916 198.315C327.592 198.315 328.121 198.186 328.502 197.926C328.883 197.667 329.074 197.313 329.074 196.847C329.074 196.415 328.935 196.078 328.666 195.836C328.389 195.594 328.043 195.396 327.618 195.258C327.194 195.111 326.743 194.973 326.266 194.834C325.79 194.696 325.339 194.523 324.906 194.316C324.473 194.109 324.126 193.815 323.858 193.444C323.589 193.072 323.459 192.58 323.459 191.984C323.459 191.388 323.598 190.913 323.884 190.49C324.161 190.067 324.568 189.739 325.097 189.497C325.625 189.263 326.24 189.143 326.968 189.143C327.731 189.143 328.424 189.281 329.039 189.549C329.654 189.825 330.157 190.222 330.529 190.758L329.559 191.725C329.256 191.336 328.874 191.043 328.424 190.835C327.973 190.628 327.462 190.525 326.899 190.525C326.249 190.525 325.755 190.654 325.417 190.905C325.079 191.155 324.906 191.483 324.906 191.881C324.906 192.278 325.045 192.571 325.313 192.796C325.591 193.021 325.937 193.202 326.362 193.332C326.786 193.47 327.237 193.608 327.713 193.737C328.19 193.876 328.64 194.057 329.074 194.273C329.507 194.498 329.854 194.8 330.122 195.18C330.391 195.56 330.521 196.069 330.521 196.717C330.521 197.624 330.191 198.341 329.542 198.877C328.883 199.412 327.999 199.68 326.873 199.68V199.697Z" fill="#1B3864"/>
<path d="M340.434 199.49V184.678H342.011V199.49H340.434ZM341.447 193.548V192.149H345.832C346.438 192.149 346.975 192.028 347.46 191.786C347.946 191.544 348.327 191.19 348.604 190.741C348.881 190.292 349.029 189.748 349.029 189.117C349.029 188.487 348.89 187.943 348.604 187.493C348.327 187.044 347.946 186.69 347.46 186.44C346.975 186.189 346.438 186.06 345.832 186.06H341.447V184.686H345.935C346.828 184.686 347.625 184.868 348.336 185.239C349.037 185.602 349.601 186.12 350.008 186.777C350.415 187.433 350.623 188.219 350.623 189.126C350.623 190.033 350.415 190.793 350.008 191.458C349.601 192.123 349.037 192.641 348.336 193.004C347.634 193.367 346.828 193.557 345.935 193.557H341.447V193.548Z" fill="#1B3864"/>
<path d="M358.405 199.697C357.426 199.697 356.533 199.464 355.736 198.989C354.939 198.514 354.306 197.875 353.839 197.071C353.371 196.268 353.137 195.37 353.137 194.377C353.137 193.383 353.371 192.52 353.839 191.725C354.306 190.939 354.939 190.309 355.736 189.842C356.533 189.376 357.426 189.143 358.405 189.143C359.384 189.143 360.294 189.376 361.082 189.834C361.87 190.291 362.503 190.922 362.971 191.716C363.439 192.511 363.673 193.401 363.673 194.377C363.673 195.353 363.439 196.285 362.971 197.08C362.503 197.875 361.87 198.514 361.082 198.989C360.294 199.464 359.401 199.697 358.405 199.697ZM358.405 198.237C359.124 198.237 359.765 198.073 360.319 197.745C360.874 197.417 361.316 196.959 361.636 196.372C361.957 195.784 362.122 195.119 362.122 194.394C362.122 193.668 361.957 193.012 361.636 192.442C361.316 191.872 360.874 191.423 360.319 191.095C359.765 190.766 359.124 190.602 358.405 190.602C357.686 190.602 357.062 190.766 356.507 191.095C355.944 191.423 355.511 191.872 355.19 192.442C354.87 193.012 354.714 193.66 354.714 194.394C354.714 195.128 354.87 195.802 355.19 196.389C355.511 196.968 355.944 197.426 356.507 197.754C357.07 198.082 357.703 198.246 358.405 198.246V198.237Z" fill="#1B3864"/>
<path d="M370.43 199.697C369.884 199.697 369.355 199.619 368.853 199.473C368.35 199.326 367.891 199.11 367.484 198.833C367.076 198.557 366.721 198.237 366.418 197.866L367.388 196.873C367.796 197.365 368.246 197.719 368.757 197.961C369.269 198.194 369.84 198.315 370.473 198.315C371.149 198.315 371.677 198.186 372.059 197.926C372.44 197.667 372.63 197.313 372.63 196.847C372.63 196.415 372.492 196.078 372.223 195.836C371.946 195.594 371.599 195.396 371.175 195.258C370.75 195.111 370.3 194.973 369.823 194.834C369.347 194.696 368.896 194.523 368.463 194.316C368.03 194.109 367.683 193.815 367.414 193.444C367.146 193.072 367.016 192.58 367.016 191.984C367.016 191.388 367.154 190.913 367.44 190.49C367.718 190.067 368.125 189.739 368.653 189.497C369.182 189.263 369.797 189.143 370.525 189.143C371.287 189.143 371.981 189.281 372.596 189.549C373.211 189.825 373.713 190.222 374.086 190.758L373.116 191.725C372.812 191.336 372.431 191.043 371.981 190.835C371.53 190.628 371.019 190.525 370.456 190.525C369.806 190.525 369.312 190.654 368.974 190.905C368.636 191.155 368.463 191.483 368.463 191.881C368.463 192.278 368.601 192.571 368.87 192.796C369.147 193.021 369.494 193.202 369.918 193.332C370.343 193.47 370.793 193.608 371.27 193.737C371.747 193.876 372.197 194.057 372.63 194.273C373.064 194.498 373.41 194.8 373.679 195.18C373.947 195.56 374.077 196.069 374.077 196.717C374.077 197.624 373.748 198.341 373.098 198.877C372.44 199.412 371.556 199.68 370.43 199.68V199.697Z" fill="#1B3864"/>
<path d="M380.836 199.697C380.29 199.697 379.761 199.619 379.259 199.473C378.756 199.326 378.297 199.11 377.89 198.833C377.483 198.557 377.127 198.237 376.824 197.866L377.795 196.873C378.202 197.365 378.652 197.719 379.164 197.961C379.675 198.194 380.247 198.315 380.879 198.315C381.555 198.315 382.084 198.186 382.465 197.926C382.846 197.667 383.037 197.313 383.037 196.847C383.037 196.415 382.898 196.078 382.629 195.836C382.352 195.594 382.006 195.396 381.581 195.258C381.156 195.111 380.706 194.973 380.229 194.834C379.753 194.696 379.302 194.523 378.869 194.316C378.436 194.109 378.089 193.815 377.821 193.444C377.552 193.072 377.422 192.58 377.422 191.984C377.422 191.388 377.561 190.913 377.847 190.49C378.124 190.067 378.531 189.739 379.06 189.497C379.588 189.263 380.203 189.143 380.931 189.143C381.694 189.143 382.387 189.281 383.002 189.549C383.617 189.825 384.12 190.222 384.492 190.758L383.522 191.725C383.219 191.336 382.837 191.043 382.387 190.835C381.936 190.628 381.425 190.525 380.862 190.525C380.212 190.525 379.718 190.654 379.38 190.905C379.042 191.155 378.869 191.483 378.869 191.881C378.869 192.278 379.008 192.571 379.276 192.796C379.553 193.021 379.9 193.202 380.325 193.332C380.749 193.47 381.2 193.608 381.676 193.737C382.153 193.876 382.603 194.057 383.037 194.273C383.47 194.498 383.816 194.8 384.085 195.18C384.354 195.56 384.484 196.069 384.484 196.717C384.484 197.624 384.154 198.341 383.504 198.877C382.846 199.412 381.962 199.68 380.836 199.68V199.697Z" fill="#1B3864"/>
<path d="M388.893 187.173C388.607 187.173 388.365 187.069 388.157 186.862C387.957 186.655 387.854 186.404 387.854 186.119C387.854 185.834 387.957 185.566 388.157 185.368C388.356 185.169 388.599 185.065 388.893 185.065C389.214 185.065 389.465 185.169 389.656 185.368C389.846 185.566 389.95 185.817 389.95 186.119C389.95 186.421 389.855 186.655 389.656 186.862C389.465 187.069 389.205 187.173 388.893 187.173ZM388.139 199.489V189.375H389.673V199.489H388.139Z" fill="#1B3864"/>
<path d="M393.988 199.49V184.254H395.496V191.855L395.193 194.29L395.496 196.786V199.498H393.988V199.49ZM399.239 199.706C398.459 199.706 397.766 199.55 397.142 199.231C396.527 198.911 396.016 198.479 395.617 197.926C395.219 197.374 394.976 196.734 394.898 196V192.839C394.985 192.096 395.227 191.44 395.635 190.887C396.042 190.334 396.553 189.911 397.177 189.609C397.801 189.307 398.494 189.16 399.239 189.16C400.175 189.16 401.015 189.393 401.769 189.859C402.514 190.326 403.112 190.956 403.554 191.751C403.996 192.545 404.212 193.444 404.212 194.454C404.212 195.465 403.996 196.337 403.562 197.123C403.129 197.909 402.54 198.54 401.778 199.006C401.024 199.472 400.175 199.706 399.239 199.706ZM398.979 198.263C399.698 198.263 400.331 198.099 400.876 197.78C401.422 197.46 401.856 197.002 402.159 196.424C402.471 195.845 402.627 195.18 402.627 194.428C402.627 193.677 402.471 193.003 402.159 192.425C401.847 191.855 401.422 191.397 400.876 191.069C400.331 190.74 399.707 190.576 398.996 190.576C398.286 190.576 397.671 190.74 397.125 191.069C396.588 191.397 396.163 191.855 395.86 192.425C395.557 192.995 395.409 193.668 395.409 194.428C395.409 195.188 395.557 195.836 395.86 196.424C396.163 197.002 396.579 197.46 397.116 197.78C397.645 198.099 398.268 198.263 398.97 198.263H398.979Z" fill="#1B3864"/>
<path d="M407.869 199.49V184.254H409.377V199.49H407.869Z" fill="#1B3864"/>
<path d="M418.386 199.697C417.363 199.697 416.454 199.464 415.648 199.006C414.842 198.549 414.201 197.918 413.733 197.115C413.265 196.311 413.031 195.405 413.031 194.403C413.031 193.401 413.265 192.52 413.724 191.725C414.184 190.931 414.807 190.3 415.605 189.842C416.393 189.385 417.285 189.151 418.265 189.151C419.183 189.151 420.006 189.359 420.717 189.773C421.427 190.188 421.99 190.766 422.397 191.509C422.805 192.252 423.013 193.099 423.013 194.057C423.013 194.169 423.013 194.308 422.995 194.455C422.978 194.601 422.952 194.783 422.909 194.981H414.123V193.686H422.094L421.557 194.161C421.574 193.418 421.444 192.77 421.176 192.235C420.907 191.699 420.526 191.285 420.032 190.982C419.538 190.689 418.932 190.542 418.23 190.542C417.528 190.542 416.852 190.697 416.306 191.017C415.761 191.337 415.327 191.777 415.024 192.338C414.712 192.908 414.556 193.574 414.556 194.351C414.556 195.128 414.721 195.811 415.041 196.398C415.362 196.985 415.821 197.443 416.402 197.771C416.982 198.099 417.658 198.263 418.421 198.263C419.036 198.263 419.608 198.151 420.127 197.927C420.647 197.702 421.08 197.374 421.444 196.925L422.415 197.918C421.938 198.479 421.349 198.911 420.656 199.222C419.954 199.533 419.209 199.689 418.403 199.689L418.386 199.697Z" fill="#1B3864"/>
<path d="M88.2989 142.175C82.6237 144.654 75.7009 145.897 67.539 145.897C60.9021 145.897 54.8457 144.757 49.3611 142.468C43.8765 140.18 39.1284 136.906 35.1082 132.648C31.0879 128.39 27.9947 123.337 25.8286 117.481C23.6538 111.634 22.5794 105.208 22.5794 98.2207C22.5794 91.2333 23.6625 84.8073 25.8286 78.96C27.9947 73.1127 31.0879 68.06 35.1082 63.7933C39.1284 59.5352 43.8765 56.2618 49.3611 53.973C54.8457 51.6841 60.9021 50.544 67.539 50.544C75.0597 50.544 81.662 51.7532 87.3458 54.1716C93.021 56.59 97.8384 59.9585 101.789 64.277L116.71 49.404C110.584 43.2975 103.574 38.4694 95.6637 34.9109C87.7531 31.3525 78.3782 29.5732 67.539 29.5732C57.8436 29.5732 48.8846 31.3525 40.6534 34.9109C32.4222 38.4694 25.2481 43.3666 19.131 49.594C13.0053 55.8213 8.29183 63.1023 4.97337 71.4285C1.6549 79.746 0 88.6767 0 98.212C0 107.747 1.6549 116.687 4.97337 125.013C8.29183 133.339 13.0053 140.655 19.131 146.942C25.2567 153.239 32.4309 158.136 40.6534 161.625C48.8846 165.123 57.8436 166.868 67.539 166.868C78.2569 166.868 87.7531 165.089 96.0449 161.53C104.337 157.972 111.546 153.075 117.663 146.847L102.742 131.974C98.7915 136.302 93.9741 139.696 88.2989 142.175Z" fill="#1B3864"/>
<path d="M161.038 133.063L137.515 73.4238H114.363L149.272 155.761L127.083 200H150.425L166.592 165.918L209.264 73.4238H185.914L161.038 133.063Z" fill="#1B3864"/>
<path d="M340.495 73.4238H319.449V164.977H340.495V73.4238Z" fill="#1B3864"/>
<path d="M413.12 73.9935C409.42 72.3438 405.278 71.5146 400.686 71.5146C390.228 71.5146 382.413 75.1077 377.249 82.2937C377.084 82.5269 376.928 82.7601 376.772 82.9933V73.4234H355.727V164.976H376.772V114.052C376.772 106.167 378.687 100.388 382.508 96.7003C386.338 93.0123 391.181 91.1726 397.047 91.1726C399.724 91.1726 402.081 91.5526 404.126 92.3127C406.162 93.0728 408.016 94.3511 409.671 96.1303L423.448 82.0173C420.259 78.3293 416.811 75.6604 413.12 74.0108V73.9935Z" fill="#1B3864"/>
<path d="M281.594 27.6123V83.546C278.952 80.5057 275.789 77.9751 272.124 75.9453C266.7 72.9569 260.488 71.4627 253.47 71.4627C245.178 71.4627 237.683 73.5961 230.994 77.8541C224.297 82.1122 219.003 87.8386 215.112 95.016C211.222 102.202 209.281 110.304 209.281 119.329C209.281 128.355 211.222 136.275 215.112 143.453C219.003 150.639 224.297 156.322 230.994 160.52C237.692 164.717 245.178 166.816 253.47 166.816C260.479 166.816 266.735 165.322 272.219 162.333C275.867 160.347 278.986 157.868 281.594 154.888V164.907H302.64V27.6123H281.594ZM279.68 133.641C277.513 137.839 274.481 141.112 270.591 143.461C266.7 145.819 262.143 146.985 256.909 146.985C251.676 146.985 247.309 145.811 243.419 143.461C239.529 141.112 236.47 137.839 234.235 133.641C231.999 129.443 230.89 124.615 230.89 119.148C230.89 113.681 232.008 108.853 234.235 104.655C236.461 100.457 239.529 97.1839 243.419 94.8346C247.309 92.4853 251.867 91.3107 257.1 91.3107C262.333 91.3107 266.692 92.4853 270.591 94.8346C274.481 97.1925 277.505 100.457 279.68 104.655C281.846 108.853 282.929 113.681 282.929 119.148C282.929 124.615 281.846 129.443 279.68 133.641Z" fill="#1B3864"/>
</svg>
