<svg width="223" height="224" viewBox="0 0 223 224" fill="none" xmlns="http://www.w3.org/2000/svg">
<path d="M222.991 110.376L222.437 110.393L222.991 110.3C222.991 109.669 222.974 109.046 222.949 108.432C222.932 107.895 222.906 107.358 222.889 106.829L222.872 106.505C222.846 105.857 222.804 105.209 222.761 104.57C222.676 103.197 222.573 101.943 222.454 100.741C222.402 100.229 222.351 99.7263 222.292 99.2317L222.266 99.0185C222.232 98.6945 222.198 98.379 222.155 98.0976L221.95 96.469C221.882 96 221.813 95.5225 221.745 95.045C221.668 94.5248 221.583 94.0132 221.498 93.5016L221.071 91.0714C220.968 90.5513 220.874 90.0226 220.738 89.3831C220.635 88.8885 220.533 88.394 220.422 87.925C220.311 87.4048 220.192 86.8932 220.072 86.3901L220.038 86.2367C219.961 85.8871 219.884 85.5375 219.79 85.1878C219.714 84.8553 219.628 84.5313 219.551 84.2499C219.509 84.0538 219.457 83.8576 219.415 83.7127C219.312 83.3034 219.201 82.9026 219.099 82.5189C219.014 82.2034 218.928 81.8794 218.834 81.5468L217.878 78.3492C217.725 77.8462 217.562 77.3345 217.4 76.857C217.264 76.4307 217.119 75.9958 216.973 75.5865C216.82 75.1346 216.666 74.6827 216.512 74.2478C216.367 73.8385 216.214 73.4292 216.069 73.054C215.906 72.6021 215.736 72.1502 215.531 71.63C215.258 70.9223 214.976 70.2145 214.686 69.5239L213.977 67.827C213.824 67.4859 213.678 67.1448 213.516 66.7697L213.448 66.6162C213.346 66.3774 213.243 66.1472 213.132 65.917L212.637 64.8511C212.372 64.2883 212.108 63.7255 211.843 63.1883C210.255 59.914 208.48 56.6738 206.568 53.5785C186.405 20.7753 151.398 0.907565 112.96 0.421529C111.995 0.395949 110.996 0.395949 110.083 0.421529C71.5164 0.899038 36.4667 20.8436 16.3127 53.7661C5.89852 70.7688 0.264623 90.3381 0.0170724 110.342C0 110.82 0 111.314 0 111.792C0 112.269 0 112.764 0.0170724 113.224C0.273159 133.791 6.18875 153.821 17.1407 171.148C37.4142 203.252 72.1566 222.702 110.057 223.162C110.535 223.179 111.022 223.179 111.509 223.179C111.995 223.179 112.482 223.179 112.943 223.162C151.279 222.685 186.226 202.919 206.423 170.287C207.097 169.195 207.763 168.07 208.454 166.867C209.095 165.742 209.615 164.812 210.076 163.909L210.144 163.781C210.588 162.945 211.041 162.058 211.604 160.907C211.852 160.404 212.099 159.892 212.389 159.287L212.535 158.98C212.799 158.417 213.055 157.854 213.294 157.309C213.55 156.746 213.798 156.175 214.028 155.629C214.267 155.083 214.498 154.546 214.771 153.872C214.976 153.378 215.181 152.866 215.36 152.38C215.855 151.135 216.316 149.89 216.726 148.705C216.931 148.134 217.127 147.571 217.315 146.983L217.366 146.838C217.554 146.275 217.733 145.712 217.904 145.158C218.092 144.561 218.279 143.956 218.45 143.367C218.621 142.796 218.783 142.233 218.945 141.636L219.457 139.743C219.765 138.532 220.055 137.33 220.354 136.025C220.49 135.42 220.618 134.815 220.721 134.26C220.823 133.826 220.909 133.382 220.968 133.007C221.071 132.546 221.156 132.086 221.224 131.651C221.301 131.242 221.37 130.833 221.455 130.347C221.549 129.792 221.651 129.221 221.737 128.564C221.822 128.002 221.907 127.447 221.993 126.791L222.044 126.416C222.112 125.878 222.181 125.35 222.232 124.847C222.309 124.207 222.385 123.559 222.445 122.928C222.505 122.348 222.556 121.76 222.607 121.112C222.624 120.907 222.65 120.703 222.65 120.558C222.684 120.182 222.718 119.79 222.727 119.458C222.761 119.057 222.787 118.648 222.804 118.247L222.94 115.177C222.957 114.555 222.974 113.932 222.983 113.224C223 112.747 223 112.261 223 111.783C223 111.306 223 110.82 222.983 110.368L222.991 110.376ZM219.389 120.302L219.338 120.941C219.295 121.496 219.244 122.041 219.184 122.604C219.125 123.218 219.065 123.832 218.979 124.471C218.92 125.017 218.851 125.554 218.792 126.04C218.766 126.185 218.749 126.339 218.732 126.45C218.664 126.987 218.587 127.516 218.501 128.036C218.484 128.121 218.476 128.198 218.476 128.232C218.399 128.761 218.314 129.281 218.211 129.86C218.143 130.253 218.075 130.654 217.998 131.071C217.93 131.489 217.853 131.898 217.75 132.367C217.682 132.76 217.605 133.143 217.511 133.578C217.409 134.15 217.281 134.721 217.161 135.258C217.136 135.335 217.127 135.412 217.11 135.463C216.862 136.58 216.581 137.739 216.282 138.899L215.77 140.775C215.625 141.321 215.463 141.866 215.3 142.412C215.13 142.992 214.959 143.572 214.763 144.16C214.617 144.638 214.464 145.107 214.31 145.576L214.259 145.746C214.225 145.84 214.191 145.925 214.182 145.968C214.011 146.505 213.824 147.034 213.619 147.588C213.218 148.748 212.774 149.95 212.287 151.178C212.108 151.655 211.92 152.124 211.655 152.755C211.451 153.267 211.246 153.77 211.007 154.299C210.776 154.844 210.537 155.39 210.29 155.944C210.051 156.49 209.803 157.027 209.555 157.556L209.41 157.854C209.163 158.375 208.915 158.895 208.659 159.423C208.104 160.549 207.669 161.41 207.268 162.161C207.217 162.246 207.174 162.323 207.157 162.365C206.704 163.218 206.209 164.122 205.595 165.213C204.92 166.39 204.28 167.473 203.614 168.539C184.015 200.216 150.092 219.402 112.866 219.862C112.422 219.879 111.987 219.879 111.543 219.879H111.295C110.902 219.879 110.527 219.879 110.117 219.862C73.309 219.41 39.591 200.532 19.9064 169.374C9.27886 152.559 3.53399 133.118 3.28644 113.139C3.26937 112.679 3.26937 112.227 3.26937 111.775C3.26937 111.323 3.26937 110.871 3.28644 110.393C3.52546 90.9606 8.99717 71.9626 19.104 55.4629C38.669 23.521 72.6944 4.16486 110.143 3.7044C110.578 3.69587 111.022 3.68735 111.5 3.68735C111.978 3.68735 112.413 3.68735 112.891 3.7044C150.22 4.17338 184.203 23.4613 203.785 55.2924C205.637 58.3024 207.362 61.4403 208.907 64.6294C209.163 65.1495 209.419 65.6782 209.666 66.2239L210.162 67.2983C210.264 67.5115 210.358 67.7247 210.452 67.9378L210.546 68.151C210.691 68.475 210.836 68.7905 210.972 69.1146L211.664 70.7688C211.946 71.4339 212.219 72.1075 212.5 72.8664C212.663 73.2928 212.833 73.7191 212.996 74.1881C213.141 74.5718 213.286 74.947 213.422 75.3478C213.542 75.6803 213.661 76.0214 213.781 76.3625L213.883 76.6609C214.028 77.0617 214.156 77.4624 214.293 77.8803C214.455 78.3578 214.609 78.8438 214.763 79.3213L215.719 82.5104L215.958 83.3972C216.06 83.7638 216.154 84.1305 216.265 84.5569C216.308 84.7018 216.342 84.8468 216.393 85.0429C216.478 85.3584 216.555 85.6654 216.632 86.015C216.709 86.3219 216.777 86.6289 216.854 86.9444L216.897 87.1405C217.008 87.6265 217.127 88.1211 217.238 88.6413C217.349 89.1188 217.451 89.6048 217.545 90.0908L217.58 90.2358C217.665 90.6536 217.75 91.0714 217.827 91.4893L218.279 94.0473C218.365 94.5504 218.442 95.0535 218.519 95.5566C218.587 96.0085 218.655 96.469 218.715 96.9294L218.792 97.5178C218.826 97.7821 218.86 98.0379 218.894 98.3023L218.92 98.5325C218.971 98.8821 219.005 99.2402 219.048 99.6154C219.107 100.101 219.159 100.579 219.201 101.074C219.321 102.242 219.415 103.461 219.5 104.791C219.534 105.405 219.577 106.036 219.603 106.659L219.62 106.983C219.645 107.503 219.662 108.023 219.679 108.552C219.697 109.149 219.714 109.745 219.722 110.462C219.739 110.914 219.739 111.366 219.739 111.809C219.739 112.252 219.739 112.721 219.722 113.173V113.293C219.722 113.898 219.697 114.495 219.679 115.083L219.543 118.093C219.526 118.46 219.509 118.827 219.466 119.236C219.449 119.577 219.423 119.927 219.389 120.31V120.302Z" fill="#C8D72C" fill-opacity="0.2"/>
<path d="M211.986 110.556L212.54 110.471C212.54 109.899 212.523 109.337 212.506 108.774C212.489 108.185 212.464 107.606 212.438 107.026C212.412 106.437 212.378 105.849 212.335 105.269C212.259 104.067 212.165 102.89 212.054 101.799C212.011 101.338 211.96 100.878 211.909 100.434C211.875 100.119 211.832 99.8035 211.789 99.4027L211.618 98.0384C211.55 97.5694 211.482 97.1004 211.414 96.6314C211.345 96.1624 211.268 95.6935 211.192 95.233L210.808 93.0245C210.714 92.547 210.628 92.078 210.5 91.4726C210.415 91.0292 210.321 90.5858 210.227 90.1765C210.125 89.7076 210.014 89.2386 209.903 88.7696C209.826 88.4115 209.74 88.0533 209.655 87.7208C209.578 87.4053 209.501 87.0983 209.433 86.8425C209.391 86.6549 209.339 86.4758 209.305 86.3565C209.211 85.9813 209.117 85.6231 209.023 85.2735C208.947 84.9836 208.87 84.6937 208.784 84.3867L207.922 81.4961C207.777 81.0357 207.632 80.5752 207.487 80.1403C207.367 79.7481 207.231 79.3559 207.094 78.9892C206.958 78.5799 206.813 78.1621 206.676 77.7784C206.539 77.4032 206.403 77.0365 206.275 76.6954C206.13 76.2861 205.967 75.8769 205.788 75.3993C205.541 74.7513 205.285 74.1118 205.02 73.4893L204.32 71.8095C204.2 71.5452 204.09 71.2723 203.961 70.9909C203.851 70.7351 203.74 70.4708 203.62 70.2235L203.176 69.2599C202.946 68.7483 202.698 68.2367 202.459 67.7507C201.213 65.1841 199.847 62.6516 198.404 60.2299C197.995 59.5392 197.337 59.0532 196.552 58.8571C195.758 58.661 194.947 58.7974 194.256 59.2237L159.326 80.9078L141.4 92.3594C127.759 82.9031 120.23 69.0212 114.502 17.1348C114.331 15.617 113.042 14.4658 111.497 14.4658C109.952 14.4658 108.697 15.6084 108.527 17.1348C103.977 58.4052 98.7868 80.2597 81.74 92.2742L73.0843 87.2262L42.1661 68.4328L28.7387 59.4966C28.0558 59.0447 27.2021 58.8912 26.4083 59.0703C25.6144 59.2493 24.923 59.7524 24.5047 60.4516C15.5417 75.5614 10.6931 92.8711 10.4712 110.488C10.4541 110.923 10.4541 111.366 10.4541 111.801C10.4541 112.236 10.4541 112.688 10.4712 113.097C10.6931 131.251 15.8063 149.004 25.2644 164.421C25.6827 165.103 26.34 165.58 27.1253 165.759C27.9192 165.938 28.7131 165.811 29.396 165.393L64.3347 143.709L82.7131 131.959C99.0173 144.092 104.045 165.691 108.527 206.382C108.697 207.899 109.986 209.051 111.531 209.051C113.076 209.051 114.331 207.908 114.502 206.382C118.932 166.152 123.841 144.749 139.616 132.487L159.001 143.282L194.119 164.634C194.802 165.052 195.63 165.171 196.398 164.983C197.175 164.787 197.832 164.31 198.242 163.628C198.626 162.988 199.002 162.349 199.369 161.701C199.949 160.686 200.419 159.833 200.906 158.904C201.366 158.042 201.802 157.173 202.237 156.303C202.459 155.868 202.673 155.416 202.877 154.973L203.074 154.555C203.313 154.043 203.543 153.54 203.765 153.046C203.996 152.534 204.218 152.022 204.439 151.502C204.644 151.025 204.849 150.539 205.037 150.078L205.105 149.925C205.276 149.516 205.43 149.106 205.626 148.62C206.07 147.486 206.497 146.335 206.889 145.209C207.06 144.715 207.239 144.212 207.453 143.589C207.624 143.069 207.786 142.558 207.948 142.037C208.119 141.5 208.289 140.946 208.443 140.409C208.597 139.889 208.75 139.377 208.887 138.857L209.356 137.126C209.638 136.034 209.894 134.943 210.167 133.741L210.543 131.933C210.611 131.609 210.679 131.293 210.722 131.021C210.808 130.603 210.893 130.185 210.953 129.793L211.414 126.987C211.49 126.484 211.567 125.981 211.644 125.367L211.678 125.146C211.747 124.625 211.815 124.114 211.866 123.611L211.883 123.449C211.943 122.92 212.003 122.4 212.054 121.888C212.105 121.368 212.148 120.856 212.199 120.234C212.216 120.046 212.233 119.867 212.242 119.731C212.276 119.39 212.301 119.04 212.31 118.733C212.344 118.384 212.361 118.026 212.378 117.633L212.498 114.854C212.515 114.291 212.532 113.728 212.532 113.097C212.549 112.654 212.549 112.219 212.549 111.775C212.549 111.332 212.549 110.897 212.532 110.488L211.977 110.505L211.986 110.556ZM207.495 133.186L206.915 133.221C206.685 134.235 206.437 135.284 206.172 136.324L205.78 137.808C205.754 137.893 205.728 137.979 205.711 138.021C205.575 138.516 205.438 139.002 205.285 139.505C205.131 140.025 204.977 140.545 204.807 141.065C204.653 141.56 204.499 142.046 204.346 142.506C204.311 142.592 204.286 142.66 204.277 142.694C204.124 143.163 203.961 143.623 203.782 144.144C203.398 145.235 202.988 146.343 202.562 147.443L202.493 147.614C202.348 147.981 202.212 148.339 202.075 148.671L202.007 148.825C201.81 149.294 201.614 149.763 201.418 150.232C201.204 150.718 200.991 151.212 200.76 151.724C200.547 152.219 200.325 152.705 200.095 153.182L199.967 153.455C199.745 153.924 199.523 154.393 199.284 154.862C198.865 155.715 198.447 156.55 198.029 157.335C197.986 157.411 197.943 157.48 197.926 157.531C197.525 158.298 197.073 159.117 196.509 160.097C196.202 160.635 195.895 161.172 195.57 161.709L160.64 140.477L142.561 130.407C155.809 121.735 176.031 118.085 206.232 114.768C207.752 114.598 208.904 113.31 208.904 111.767C208.904 110.223 207.76 108.97 206.232 108.799C177.26 105.619 157.746 102.208 144.43 94.3292L161.058 83.7046L195.724 62.1911C197.073 64.4678 198.345 66.8298 199.497 69.2173C199.728 69.6863 199.958 70.1638 200.18 70.6584L200.632 71.6304C200.709 71.7924 200.786 71.9545 200.854 72.125L200.974 72.4064C201.085 72.6537 201.196 72.901 201.298 73.1482L201.981 74.7684C202.229 75.3738 202.476 75.9792 202.732 76.6613C202.886 77.045 203.031 77.4288 203.185 77.8551C203.321 78.1962 203.441 78.5373 203.569 78.8954C203.714 79.2791 203.842 79.6713 203.987 80.0806C204.115 80.4388 204.235 80.7969 204.354 81.1806C204.499 81.6155 204.644 82.0504 204.772 82.4767L205.618 85.3162C205.694 85.5805 205.771 85.8534 205.839 86.1262L205.891 86.3053C205.967 86.5867 206.044 86.8766 206.138 87.2347C206.172 87.3541 206.207 87.4735 206.249 87.644C206.326 87.9254 206.394 88.2068 206.463 88.5223C206.548 88.8549 206.625 89.1789 206.702 89.537C206.804 89.9804 206.915 90.4238 207.009 90.8928C207.111 91.3277 207.197 91.7626 207.316 92.3253C207.41 92.7687 207.495 93.2121 207.572 93.6385L207.948 95.7787C208.008 96.1454 208.067 96.5121 208.127 96.8872L208.17 97.143C208.238 97.5779 208.298 98.0128 208.366 98.5159L208.417 98.8996C208.452 99.1384 208.477 99.3771 208.511 99.6329L208.528 99.8035C208.571 100.127 208.614 100.46 208.648 100.81C208.699 101.245 208.742 101.679 208.793 102.123C208.895 103.189 208.989 104.314 209.066 105.482C209.1 106.037 209.134 106.599 209.16 107.171C209.186 107.734 209.211 108.305 209.228 108.885C209.245 109.422 209.262 109.959 209.262 110.607C209.271 111.008 209.271 111.426 209.271 111.826C209.271 112.227 209.271 112.645 209.254 113.088V113.174C209.254 113.719 209.237 114.257 209.22 114.785L209.1 117.514C209.083 117.838 209.066 118.17 209.032 118.546C209.015 118.861 208.989 119.168 208.964 119.526L208.921 120.106C208.878 120.601 208.836 121.087 208.784 121.598C208.742 122.076 208.682 122.553 208.622 123.116L208.605 123.287C208.562 123.687 208.511 124.097 208.46 124.48L208.434 124.711C208.417 124.821 208.4 124.932 208.383 125.086C208.315 125.572 208.247 126.049 208.178 126.51L208.136 126.791C208.067 127.235 207.999 127.669 207.922 128.104L207.88 128.326C207.828 128.633 207.777 128.94 207.709 129.273C207.649 129.648 207.581 130.023 207.495 130.449C207.444 130.722 207.393 130.995 207.325 131.293L207.274 131.524C207.171 132.027 207.06 132.538 206.941 133.084L207.487 133.203L207.495 133.186ZM13.7405 113.054C13.732 112.645 13.732 112.236 13.732 111.818C13.732 111.4 13.732 110.999 13.7405 110.573C13.9539 93.6044 18.5891 76.9598 27.1595 62.4043L40.3906 71.2126L70.3186 89.4091L70.3015 89.4262L73.5367 91.3703L74.0318 91.6176L78.6414 94.2951C65.3334 102.191 45.7855 105.61 16.7624 108.799C15.2429 108.97 14.0905 110.257 14.0905 111.801C14.0905 113.344 15.2344 114.598 16.7624 114.768C46.5025 118.034 66.4517 121.598 79.7511 129.963L62.5591 140.954L27.885 162.476C18.8452 147.623 13.9454 130.535 13.732 113.054H13.7405Z" fill="#C8D72C" fill-opacity="0.2"/>
</svg>
