<svg width="92" height="40" viewBox="0 0 92 40" fill="none" xmlns="http://www.w3.org/2000/svg">
<g clip-path="url(#clip0_169_51)">
<path d="M91.2164 6.3948H91.186L91.2164 6.38975C91.2164 6.35606 91.2164 6.32238 91.2147 6.29038C91.2147 6.26175 91.213 6.23311 91.2113 6.20448V6.18764C91.2096 6.15227 91.2062 6.11859 91.2046 6.08322C91.1995 6.00911 91.1945 5.94174 91.1877 5.87774C91.1843 5.85079 91.1827 5.82385 91.1793 5.7969V5.78511C91.1759 5.76827 91.1742 5.75142 91.1726 5.73627L91.1608 5.64869C91.1574 5.62342 91.154 5.59816 91.149 5.5729C91.1439 5.54595 91.1406 5.51732 91.1355 5.49037L91.1119 5.36068C91.1069 5.33205 91.1018 5.3051 91.0951 5.26974C91.09 5.24279 91.085 5.21584 91.0782 5.19226C91.0732 5.16531 91.0665 5.13668 91.0597 5.10973V5.10131C91.053 5.08279 91.0496 5.06426 91.0446 5.04573C91.0395 5.02721 91.0361 5.01036 91.0311 4.99521C91.0294 4.9851 91.026 4.97331 91.0244 4.96657C91.0193 4.94468 91.0126 4.92278 91.0075 4.90257C91.0024 4.88573 90.9991 4.86889 90.994 4.85036L90.9435 4.67857C90.9351 4.65162 90.9267 4.62468 90.9182 4.59773C90.9115 4.57415 90.9031 4.55225 90.8947 4.53036C90.8862 4.50678 90.8778 4.48152 90.8694 4.45962C90.861 4.43773 90.8542 4.41583 90.8458 4.39562C90.8374 4.37204 90.8273 4.34678 90.8172 4.31983C90.802 4.28109 90.7869 4.24404 90.7717 4.20699L90.7347 4.11604C90.7262 4.09751 90.7195 4.07899 90.7094 4.05877L90.706 4.05035C90.701 4.03856 90.6942 4.02509 90.6892 4.0133L90.6622 3.95604C90.6488 3.92572 90.6336 3.8954 90.6201 3.86677C90.5342 3.69161 90.4399 3.51814 90.3372 3.3514C89.2576 1.59138 87.383 0.526948 85.3249 0.5C85.2727 0.5 85.2205 0.5 85.17 0.5C83.1051 0.525263 81.2272 1.59475 80.1493 3.35982C79.5918 4.27099 79.2903 5.32026 79.2769 6.39312C79.2769 6.41838 79.2769 6.44533 79.2769 6.47059C79.2769 6.49585 79.2769 6.5228 79.2769 6.54807C79.2903 7.65123 79.607 8.72409 80.1931 9.65378C81.2794 11.3751 83.1388 12.4176 85.1683 12.4429C85.1935 12.4429 85.2205 12.4429 85.2458 12.4429C85.271 12.4429 85.298 12.4429 85.3232 12.4429C87.3763 12.4176 89.2475 11.3582 90.3288 9.60831C90.3658 9.54936 90.4012 9.49041 90.4382 9.42473C90.4719 9.3641 90.5006 9.31357 90.5258 9.26641L90.5292 9.25967C90.5528 9.21588 90.5763 9.16704 90.6083 9.10641C90.6218 9.07946 90.6353 9.05251 90.6504 9.01883L90.6589 9.00199C90.6723 8.97167 90.6875 8.94135 90.6993 8.91272C90.7128 8.88241 90.7262 8.85209 90.738 8.82346C90.7515 8.79483 90.7633 8.76451 90.7785 8.72914C90.7886 8.70219 90.8003 8.67525 90.8105 8.64998C90.8374 8.58261 90.861 8.51693 90.8829 8.45293C90.8947 8.42261 90.9048 8.39229 90.9149 8.36029L90.9182 8.35187C90.9283 8.32156 90.9385 8.29124 90.9469 8.26261C90.957 8.23061 90.9671 8.19861 90.9755 8.16661C90.9839 8.13629 90.994 8.10598 91.0025 8.07398L91.0294 7.97292C91.0462 7.90724 91.0614 7.84324 91.0766 7.77418C91.0833 7.74218 91.09 7.7085 91.0968 7.67987C91.1018 7.65629 91.1069 7.63271 91.1102 7.6125C91.1153 7.58723 91.1203 7.56365 91.1237 7.54008C91.1271 7.51818 91.1321 7.49629 91.1355 7.47102C91.1406 7.44071 91.1456 7.41039 91.1507 7.37502C91.1557 7.34471 91.1591 7.31439 91.1641 7.2807L91.1675 7.26049C91.1709 7.23186 91.1742 7.20323 91.1776 7.17628C91.1827 7.1426 91.186 7.10723 91.1894 7.07354C91.1928 7.04154 91.1961 7.01123 91.1978 6.97586C91.1978 6.96407 91.1995 6.95396 91.1995 6.94554C91.2012 6.92533 91.2029 6.90512 91.2046 6.88659C91.2062 6.8647 91.2079 6.84281 91.2079 6.82259L91.2147 6.65754C91.2147 6.62386 91.2164 6.59017 91.2164 6.55312C91.2164 6.52785 91.2164 6.50091 91.2164 6.47564C91.2164 6.45038 91.2164 6.42343 91.2164 6.39985V6.3948ZM91.0244 6.92702L91.021 6.9607C91.0193 6.99102 91.0159 7.01965 91.0126 7.04996C91.0092 7.08197 91.0058 7.11565 91.0025 7.14933C90.9991 7.17797 90.9957 7.2066 90.9924 7.23355C90.9924 7.24197 90.9907 7.25039 90.989 7.25544C90.9856 7.28407 90.9806 7.3127 90.9772 7.34134C90.9772 7.34639 90.9772 7.34976 90.9772 7.35144C90.9738 7.38007 90.9688 7.40702 90.9637 7.43902C90.9604 7.46092 90.957 7.48113 90.9519 7.50471C90.9486 7.5266 90.9435 7.5485 90.9385 7.57376C90.9351 7.59397 90.93 7.61587 90.925 7.63944C90.9199 7.66976 90.9132 7.70008 90.9065 7.72871C90.9065 7.73208 90.9048 7.73713 90.9031 7.7405C90.8896 7.80113 90.8744 7.86176 90.8593 7.92408L90.8323 8.02513C90.8239 8.05377 90.8155 8.08408 90.8071 8.11271C90.7987 8.14303 90.7886 8.17503 90.7785 8.20703C90.77 8.23229 90.7633 8.25756 90.7549 8.28282L90.7515 8.29124C90.7515 8.29124 90.7481 8.30135 90.7481 8.30303C90.738 8.33166 90.7296 8.36029 90.7178 8.39061C90.6959 8.45293 90.6723 8.51693 90.6471 8.58261C90.637 8.60788 90.6269 8.63314 90.6134 8.66683C90.6033 8.69377 90.5915 8.72072 90.578 8.74935C90.5662 8.77798 90.5528 8.8083 90.5393 8.83693C90.5258 8.86556 90.5123 8.89588 90.5006 8.92283L90.4921 8.93967C90.4787 8.9683 90.4652 8.99525 90.4517 9.02388C90.4214 9.08451 90.3978 9.12999 90.3776 9.17041C90.3742 9.17546 90.3726 9.17883 90.3709 9.1822C90.3473 9.22767 90.3203 9.27652 90.2867 9.33546C90.2513 9.39778 90.2159 9.45673 90.1806 9.51399C89.1313 11.2117 87.314 12.2408 85.3199 12.266C85.2963 12.266 85.2727 12.266 85.2491 12.266H85.2357C85.2154 12.266 85.1952 12.266 85.1733 12.266C83.2028 12.2424 81.3973 11.2302 80.343 9.55947C79.7737 8.6584 79.4655 7.61587 79.4537 6.5447C79.4537 6.51943 79.4537 6.49585 79.4537 6.47227C79.4537 6.4487 79.4537 6.42343 79.4537 6.39817C79.4672 5.35563 79.7602 4.33836 80.3009 3.45414C81.3485 1.74128 83.1708 0.703792 85.175 0.678528C85.1986 0.678528 85.2222 0.678528 85.2474 0.678528C85.2727 0.678528 85.2963 0.678528 85.3215 0.678528C87.3207 0.703792 89.1397 1.73791 90.189 3.44403C90.2883 3.60572 90.381 3.77414 90.4635 3.94425C90.477 3.97288 90.4904 3.99983 90.5039 4.03014L90.5309 4.08741C90.5359 4.0992 90.541 4.11099 90.546 4.12109L90.5511 4.13288C90.5595 4.14972 90.5662 4.16657 90.573 4.18509L90.61 4.27436C90.6252 4.30973 90.6403 4.34678 90.6555 4.3872C90.6639 4.41078 90.674 4.43267 90.6824 4.45794C90.6909 4.47815 90.6976 4.49836 90.706 4.52025C90.7128 4.53878 90.7195 4.55562 90.7246 4.57415L90.7296 4.58931C90.7363 4.6112 90.7448 4.63141 90.7515 4.65499C90.7599 4.68026 90.7683 4.7072 90.7768 4.73247L90.8273 4.90426L90.8408 4.95142C90.8458 4.97163 90.8509 4.99015 90.8576 5.01373C90.8593 5.02215 90.8627 5.02889 90.8643 5.039C90.8694 5.05584 90.8728 5.07268 90.8778 5.09121C90.8812 5.10805 90.8862 5.12321 90.8896 5.14173V5.15184C90.898 5.17879 90.9048 5.20405 90.9098 5.23268C90.9166 5.25795 90.9216 5.28489 90.9267 5.31016V5.31858C90.9334 5.34047 90.9368 5.36405 90.9418 5.38595L90.9654 5.52237C90.9704 5.54932 90.9738 5.57626 90.9789 5.60321C90.9822 5.62679 90.9856 5.65206 90.989 5.67732L90.9924 5.70932C90.994 5.72279 90.9957 5.73795 90.9974 5.75142V5.76321C91.0008 5.78174 91.0041 5.80027 91.0058 5.82216C91.0092 5.84743 91.0109 5.87437 91.0142 5.89964C91.021 5.96195 91.026 6.02764 91.0311 6.09838C91.0328 6.13206 91.0345 6.16575 91.0361 6.19775V6.21459C91.0378 6.24154 91.0395 6.27017 91.0395 6.2988C91.0395 6.3308 91.0412 6.3628 91.0412 6.40154C91.0412 6.42512 91.0412 6.45038 91.0412 6.47396C91.0412 6.49754 91.0412 6.5228 91.0412 6.54638V6.55312C91.0412 6.58512 91.0412 6.61712 91.0395 6.64912L91.0328 6.8108C91.0328 6.83102 91.0311 6.84954 91.0294 6.87312C91.0294 6.89165 91.0277 6.91017 91.026 6.93039L91.0244 6.92702Z" fill="#C8D72C"/>
<path d="M90.6271 6.40489L90.6574 6.39984C90.6574 6.36952 90.6574 6.3392 90.6557 6.30889C90.6557 6.27689 90.654 6.24657 90.6523 6.21457C90.6523 6.18257 90.649 6.15225 90.6473 6.12025C90.6439 6.05625 90.6388 5.99225 90.6321 5.93499C90.6304 5.90972 90.6271 5.88615 90.6237 5.86257C90.622 5.84572 90.6203 5.82888 90.617 5.80699L90.6085 5.73456C90.6052 5.7093 90.6018 5.68404 90.5984 5.65877C90.5951 5.63351 90.59 5.60825 90.5866 5.58298L90.5664 5.46509C90.5614 5.43982 90.5563 5.41456 90.5496 5.38256C90.5445 5.35898 90.5395 5.3354 90.5344 5.31351C90.5294 5.28824 90.5226 5.26298 90.5176 5.23772C90.5125 5.21919 90.5092 5.19898 90.5041 5.18214C90.5007 5.1653 90.4957 5.14845 90.4923 5.13498C90.4906 5.12487 90.4873 5.11477 90.4856 5.10972C90.4805 5.08951 90.4755 5.07098 90.4704 5.05077C90.4671 5.03561 90.462 5.02045 90.457 5.00361L90.4098 4.84866C90.4031 4.8234 90.3946 4.79982 90.3862 4.77624C90.3795 4.75603 90.3727 4.73413 90.366 4.71392C90.3593 4.69203 90.3508 4.67013 90.3441 4.64824C90.3374 4.62803 90.329 4.60782 90.3222 4.59097C90.3138 4.56908 90.3054 4.54718 90.297 4.52192C90.2835 4.48655 90.27 4.45287 90.2565 4.41918L90.2195 4.32823C90.2127 4.31476 90.2077 4.2996 90.1993 4.28444C90.1925 4.27097 90.1875 4.2575 90.1807 4.24402L90.1572 4.19181C90.1454 4.16486 90.1319 4.13792 90.1184 4.11097C90.0511 3.97286 89.9786 3.83812 89.9012 3.70844C89.8793 3.67138 89.8439 3.64612 89.8018 3.63433C89.7597 3.62423 89.7159 3.63096 89.6788 3.65454L87.8077 4.81666L86.8477 5.42972C86.1167 4.92277 85.7142 4.17834 85.4076 1.39768C85.3992 1.31683 85.3302 1.25452 85.246 1.25452C85.1617 1.25452 85.0961 1.31515 85.0876 1.39768C84.8434 3.61075 84.5655 4.78129 83.6527 5.42635L83.1895 5.15519L81.5339 4.14802L80.8147 3.6697C80.7777 3.64612 80.7322 3.6377 80.6901 3.64612C80.648 3.65623 80.611 3.68317 80.5891 3.72023C80.1091 4.53034 79.8497 5.45835 79.8379 6.4032C79.8379 6.42678 79.8379 6.45036 79.8379 6.47394C79.8379 6.49752 79.8379 6.5211 79.8379 6.54299C79.8497 7.51648 80.1242 8.46807 80.6295 9.29502C80.6514 9.33208 80.6867 9.35734 80.7288 9.36745C80.771 9.37755 80.8147 9.37081 80.8501 9.34723L82.7213 8.18512L83.7049 7.55522C84.5773 8.20533 84.8468 9.36408 85.0876 11.5452C85.0961 11.626 85.1651 11.6883 85.2493 11.6883C85.3335 11.6883 85.3992 11.626 85.4076 11.5452C85.6451 9.38766 85.9079 8.2407 86.7517 7.58385L87.7891 8.16322L89.6704 9.3085C89.7075 9.33039 89.7513 9.33713 89.7917 9.32702C89.8338 9.31692 89.8692 9.29166 89.891 9.2546C89.9113 9.22092 89.9315 9.18555 89.9517 9.15186C89.982 9.09797 90.0073 9.0525 90.0342 9.00197C90.0595 8.95649 90.0831 8.90934 90.1049 8.86218C90.1167 8.8386 90.1285 8.81502 90.1386 8.79144L90.1487 8.76954C90.1622 8.7426 90.174 8.71565 90.1858 8.6887C90.1976 8.66175 90.2094 8.63312 90.2212 8.60617C90.2329 8.58091 90.2431 8.55396 90.2532 8.53038L90.2565 8.52196C90.265 8.50007 90.2734 8.47817 90.2852 8.45123C90.3087 8.39059 90.3323 8.32828 90.3525 8.26764C90.3626 8.2407 90.3711 8.21375 90.3828 8.18006C90.3913 8.15312 90.4014 8.12449 90.4098 8.09754C90.4199 8.06891 90.4283 8.03859 90.4367 8.00996C90.4452 7.98301 90.4536 7.95438 90.4603 7.92743L90.4856 7.8348C90.5007 7.77585 90.5142 7.71859 90.5294 7.6529L90.5496 7.5569C90.553 7.54006 90.5563 7.52322 90.5597 7.50806C90.5647 7.48616 90.5681 7.46258 90.5715 7.44237L90.5967 7.29248C90.6001 7.26553 90.6052 7.23858 90.6085 7.2049V7.19311C90.6136 7.16448 90.617 7.13753 90.6203 7.11058V7.10216C90.6254 7.07353 90.6271 7.04658 90.6304 7.01795C90.6338 6.98932 90.6355 6.96237 90.6388 6.92868C90.6388 6.91858 90.6405 6.90847 90.6405 6.90173C90.6405 6.88321 90.6439 6.86468 90.6439 6.84784C90.6439 6.82931 90.6473 6.81079 90.6473 6.78889L90.654 6.64068C90.654 6.61036 90.6557 6.58005 90.6557 6.54636C90.6557 6.52278 90.6557 6.4992 90.6557 6.47563C90.6557 6.45205 90.6557 6.42847 90.6557 6.40657H90.6254L90.6271 6.40489ZM90.3862 7.61922H90.3559C90.3441 7.67648 90.3306 7.73206 90.3155 7.78764L90.2936 7.8668C90.2936 7.8668 90.2902 7.87522 90.2902 7.87859C90.2835 7.90554 90.2751 7.9308 90.2666 7.95775C90.2582 7.98638 90.2498 8.01333 90.2414 8.04196C90.2329 8.06891 90.2245 8.09417 90.2161 8.11943C90.2144 8.12449 90.2127 8.12785 90.2127 8.12954C90.2043 8.1548 90.1959 8.18006 90.1858 8.20701C90.1656 8.26596 90.1437 8.32491 90.1201 8.38386L90.1167 8.39228C90.1083 8.41249 90.1016 8.43102 90.0948 8.44954L90.0915 8.45796C90.0814 8.48323 90.0713 8.50849 90.0595 8.53375C90.0477 8.5607 90.0376 8.58596 90.0241 8.61291C90.0123 8.63986 90.0005 8.66512 89.9887 8.69039L89.982 8.70554C89.9702 8.73081 89.9584 8.75607 89.9449 8.78133C89.923 8.82681 89.8995 8.87228 89.8776 8.91439C89.8759 8.91776 89.8725 8.92281 89.8725 8.92449C89.8506 8.96492 89.827 9.01039 89.7967 9.0626C89.7799 9.09123 89.763 9.11986 89.7462 9.1485L87.875 8.00996L86.9066 7.46932C87.6157 7.00447 88.6986 6.8091 90.3155 6.63057C90.3963 6.62215 90.4586 6.5531 90.4586 6.46889C90.4586 6.38468 90.3963 6.31899 90.3155 6.31057C88.7643 6.14046 87.7184 5.95688 87.006 5.53414L87.8969 4.96487L89.7529 3.81118C89.8254 3.93244 89.8927 4.06044 89.955 4.18844C89.9668 4.21371 89.9803 4.23897 89.9921 4.26592L90.0157 4.31813C90.0191 4.32655 90.0241 4.33497 90.0275 4.34508L90.0342 4.36023C90.0409 4.37371 90.046 4.38718 90.0511 4.39897L90.0881 4.48655C90.1016 4.51855 90.1151 4.55055 90.1285 4.58761C90.1369 4.60782 90.1454 4.62803 90.1521 4.65161C90.1588 4.67013 90.1656 4.68866 90.1723 4.70719C90.1791 4.7274 90.1875 4.74929 90.1942 4.77119C90.201 4.78971 90.2077 4.80992 90.2144 4.83013C90.2228 4.85371 90.2296 4.87729 90.2363 4.89919L90.2818 5.05077C90.2852 5.06424 90.2902 5.0794 90.2936 5.09456L90.297 5.10466C90.3003 5.11982 90.3054 5.13498 90.3104 5.15519C90.3121 5.16193 90.3138 5.16866 90.3155 5.17709C90.3188 5.19224 90.3239 5.2074 90.3273 5.22424C90.3323 5.24109 90.3357 5.25961 90.3407 5.27814C90.3458 5.30172 90.3525 5.3253 90.3576 5.35056C90.3626 5.37414 90.3677 5.39772 90.3744 5.42804C90.3795 5.45161 90.3845 5.47519 90.3879 5.49877L90.4081 5.6133C90.4115 5.63351 90.4148 5.65204 90.4182 5.67225V5.68572C90.4233 5.7093 90.4266 5.73288 90.4317 5.75983L90.4351 5.78004C90.4367 5.79351 90.4384 5.8053 90.4401 5.81878V5.82888C90.4435 5.84572 90.4452 5.86425 90.4468 5.88278C90.4502 5.90636 90.4519 5.92994 90.4536 5.95351C90.4586 6.01078 90.4637 6.07141 90.4687 6.13373C90.4704 6.16404 90.4721 6.19436 90.4738 6.22468C90.4738 6.25499 90.4772 6.28531 90.4772 6.31562C90.4772 6.34426 90.4772 6.37289 90.4789 6.40826C90.4789 6.43015 90.4789 6.45205 90.4789 6.47394C90.4789 6.49584 90.4789 6.51773 90.4789 6.54131V6.54636C90.4789 6.575 90.4788 6.60531 90.4772 6.63226L90.4704 6.77879C90.4704 6.79563 90.4687 6.81416 90.4671 6.83437C90.4671 6.85121 90.4654 6.86805 90.4637 6.88658V6.91689C90.4586 6.94384 90.457 6.9691 90.4536 6.99774C90.4519 7.023 90.4485 7.04826 90.4452 7.07858V7.087C90.4418 7.1089 90.4384 7.13079 90.4367 7.151V7.16279C90.4367 7.16279 90.4334 7.17458 90.4317 7.183C90.4283 7.20826 90.4249 7.23521 90.4199 7.25879V7.27395C90.4132 7.29753 90.4098 7.32111 90.4064 7.34469V7.35648C90.4014 7.37332 90.398 7.38848 90.3946 7.407C90.3913 7.42721 90.3879 7.44743 90.3828 7.46932C90.3795 7.48448 90.3778 7.49795 90.3744 7.51479L90.3711 7.52658C90.366 7.55353 90.3593 7.58048 90.3542 7.6108L90.3828 7.61753L90.3862 7.61922ZM80.0114 6.53963C80.0114 6.51773 80.0114 6.49584 80.0114 6.47394C80.0114 6.45205 80.0114 6.43015 80.0114 6.40657C80.0232 5.49709 80.2707 4.60445 80.7305 3.82465L81.4396 4.29623L83.043 5.2714L83.2165 5.37582L83.2434 5.3893L83.4893 5.53246C82.7769 5.9552 81.7293 6.13878 80.1764 6.31057C80.0956 6.31899 80.0333 6.38805 80.0333 6.47226C80.0333 6.55647 80.0956 6.62215 80.1764 6.63057C81.7697 6.80573 82.8375 6.99605 83.5499 7.44574L82.6287 8.03522L80.771 9.18892C80.2859 8.39228 80.0248 7.47606 80.0131 6.53963H80.0114Z" fill="#C8D72C"/>
<path d="M17.164 28.2241C16.0608 28.7075 14.7151 28.95 13.1286 28.95C11.8384 28.95 10.6612 28.7277 9.59505 28.2814C8.52893 27.8351 7.60598 27.1968 6.82449 26.3664C6.04301 25.5361 5.44174 24.5508 5.02069 23.4089C4.59794 22.2687 4.3891 21.0156 4.3891 19.6531C4.3891 18.2906 4.59963 17.0375 5.02069 15.8973C5.44174 14.757 6.04301 13.7718 6.82449 12.9398C7.60598 12.1094 8.52893 11.4711 9.59505 11.0248C10.6612 10.5785 11.8384 10.3562 13.1286 10.3562C14.5905 10.3562 15.8739 10.5919 16.9787 11.0635C18.0819 11.5351 19.0183 12.192 19.7863 13.0341L22.6866 10.1338C21.4958 8.94308 20.1333 8.0016 18.5956 7.3077C17.0579 6.6138 15.2355 6.26685 13.1286 6.26685C11.2439 6.26685 9.50242 6.6138 7.9024 7.3077C6.30238 8.0016 4.90784 8.95656 3.71878 10.1709C2.52803 11.3852 1.61181 12.805 0.966747 14.4286C0.321688 16.0505 0 17.792 0 19.6514C0 21.5108 0.321688 23.254 0.966747 24.8776C1.61181 26.5012 2.52803 27.9277 3.71878 29.1538C4.90953 30.3816 6.30407 31.3366 7.9024 32.017C9.50242 32.6991 11.2439 33.0393 13.1286 33.0393C15.212 33.0393 17.0579 32.6924 18.6697 31.9985C20.2815 31.3046 21.6828 30.3496 22.8718 29.1353L19.9716 26.2351C19.2036 27.0789 18.2671 27.7408 17.164 28.2241Z" fill="white"/>
<path d="M31.3029 26.4472L26.7302 14.8176H22.23L29.0157 30.8734L24.7024 39.5H29.2397L32.3825 32.854L40.6773 14.8176H36.1383L31.3029 26.4472Z" fill="white"/>
<path d="M66.1867 14.8176H62.0957V32.6705H66.1867V14.8176Z" fill="white"/>
<path d="M80.3038 14.9288C79.5846 14.6071 78.7796 14.4454 77.8869 14.4454C75.8541 14.4454 74.3349 15.1461 73.3311 16.5474C73.2991 16.5928 73.2688 16.6383 73.2385 16.6838V14.8176H69.1475V32.6705H73.2385V22.7403C73.2385 21.2026 73.6107 20.0758 74.3534 19.3566C75.0978 18.6375 76.0393 18.2787 77.1795 18.2787C77.7 18.2787 78.1581 18.3528 78.5556 18.5011C78.9514 18.6493 79.3118 18.8985 79.6335 19.2455L82.3114 16.4935C81.6916 15.7743 81.0213 15.2539 80.3038 14.9322V14.9288Z" fill="white"/>
<path d="M54.7372 5.88452V16.7916C54.2235 16.1987 53.6088 15.7053 52.8964 15.3095C51.8421 14.7267 50.6345 14.4354 49.2702 14.4354C47.6584 14.4354 46.2016 14.8514 44.9013 15.6817C43.5994 16.512 42.5704 17.6286 41.8142 19.0282C41.0579 20.4295 40.6807 22.0093 40.6807 23.7693C40.6807 25.5294 41.0579 27.0738 41.8142 28.4734C42.5704 29.8747 43.5994 30.9829 44.9013 31.8014C46.2033 32.62 47.6584 33.0292 49.2702 33.0292C50.6328 33.0292 51.8488 32.7379 52.9149 32.1551C53.624 31.7677 54.2303 31.2844 54.7372 30.7033V32.657H58.8282V5.88452H54.7372ZM54.365 26.5601C53.944 27.3786 53.3545 28.017 52.5983 28.4751C51.842 28.9349 50.9561 29.1622 49.9389 29.1622C48.9216 29.1622 48.0727 28.9332 47.3165 28.4751C46.5603 28.017 45.9658 27.3786 45.5312 26.5601C45.0967 25.7416 44.8811 24.8001 44.8811 23.734C44.8811 22.6679 45.0984 21.7264 45.5312 20.9078C45.9641 20.0893 46.5603 19.451 47.3165 18.9929C48.0727 18.5348 48.9587 18.3057 49.9759 18.3057C50.9932 18.3057 51.8404 18.5348 52.5983 18.9929C53.3545 19.4527 53.9423 20.0893 54.365 20.9078C54.7861 21.7264 54.9966 22.6679 54.9966 23.734C54.9966 24.8001 54.7861 25.7416 54.365 26.5601Z" fill="white"/>
</g>
<defs>
<clipPath id="clip0_169_51">
<rect width="91.2178" height="39" fill="white" transform="translate(0 0.5)"/>
</clipPath>
</defs>
</svg>
