<svg width="362" height="362" viewBox="0 0 362 362" fill="none" xmlns="http://www.w3.org/2000/svg">
<g clip-path="url(#clip0_280_3601)">
<path d="M19.4339 181.264L18.5414 181.401C18.5414 182.321 18.5688 183.227 18.5963 184.133C18.6238 185.081 18.6649 186.014 18.7061 186.948C18.7473 187.895 18.8023 188.843 18.8709 189.776C18.9945 191.712 19.1455 193.607 19.324 195.364C19.3927 196.106 19.475 196.847 19.5574 197.561C19.6123 198.069 19.681 198.577 19.7496 199.223L20.0242 201.419C20.1341 202.174 20.2439 202.93 20.3538 203.685C20.4636 204.44 20.5872 205.195 20.7108 205.936L21.3287 209.493C21.4797 210.261 21.617 211.017 21.8229 211.991C21.9602 212.705 22.1113 213.419 22.2623 214.078C22.4271 214.833 22.6056 215.589 22.7841 216.344C22.9077 216.92 23.045 217.497 23.1823 218.033C23.3059 218.541 23.4294 219.035 23.5393 219.447C23.6079 219.749 23.6903 220.037 23.7452 220.229C23.8963 220.833 24.0473 221.41 24.1983 221.973C24.3219 222.44 24.4455 222.907 24.5828 223.401L25.9696 228.055C26.203 228.797 26.4364 229.538 26.6698 230.239C26.862 230.87 27.0817 231.502 27.3014 232.092C27.5211 232.751 27.7545 233.424 27.9742 234.042C28.1939 234.646 28.4136 235.236 28.6195 235.785C28.8529 236.444 29.1138 237.104 29.4022 237.872C29.8004 238.916 30.2123 239.946 30.6379 240.948L31.7638 243.653C31.9561 244.078 32.1346 244.518 32.3405 244.971C32.519 245.383 32.6975 245.808 32.8897 246.206L33.6037 247.758C33.9744 248.582 34.3726 249.406 34.7571 250.188C36.7617 254.321 38.9586 258.399 41.2791 262.298C41.9381 263.41 42.9954 264.193 44.2586 264.509C45.5355 264.824 46.8399 264.605 47.9521 263.918L104.137 229.003L132.971 210.563C154.913 225.79 167.023 248.142 176.236 331.689C176.511 334.133 178.584 335.987 181.069 335.987C183.554 335.987 185.573 334.147 185.847 331.689C193.166 265.236 201.514 230.046 228.934 210.701L242.857 218.829L292.588 249.09L314.186 263.479C315.285 264.207 316.658 264.454 317.935 264.165C319.212 263.877 320.324 263.067 320.997 261.941C335.414 237.612 343.213 209.74 343.57 181.374C343.597 180.673 343.597 179.959 343.597 179.259C343.597 178.559 343.597 177.831 343.57 177.172C343.213 147.941 334.988 119.355 319.775 94.5315C319.102 93.4331 318.045 92.6642 316.782 92.3759C315.505 92.0876 314.228 92.2935 313.129 92.9663L256.93 127.882L227.369 146.802C201.143 127.264 193.056 92.4857 185.848 26.9663C185.573 24.5224 183.5 22.6688 181.014 22.6688C178.529 22.6688 176.511 24.5086 176.236 26.9663C169.11 91.7443 161.215 126.207 135.841 145.95L104.659 128.568L48.1718 94.1882C47.0734 93.5154 45.7415 93.3232 44.5058 93.6253C43.2563 93.9411 42.199 94.7099 41.54 95.8084C40.9221 96.8381 40.318 97.8678 39.7275 98.9113C38.7938 100.545 38.0387 101.918 37.256 103.415C36.5146 104.801 35.8144 106.202 35.1141 107.602C34.7571 108.303 34.4138 109.03 34.0843 109.744L33.7685 110.417C33.3841 111.241 33.0133 112.051 32.6563 112.847C32.2856 113.671 31.9286 114.495 31.5716 115.332C31.2421 116.101 30.9126 116.884 30.6105 117.625L30.5007 117.872C30.226 118.531 29.9789 119.19 29.6631 119.973C28.9491 121.799 28.2625 123.653 27.6309 125.465C27.3563 126.261 27.068 127.072 26.7247 128.074C26.4502 128.911 26.1893 129.735 25.9284 130.573C25.6538 131.438 25.3792 132.33 25.132 133.195C24.8849 134.033 24.6377 134.856 24.418 135.694L23.6628 138.481C23.2097 140.239 22.7978 141.996 22.3584 143.932L21.7543 146.843C21.6445 147.364 21.5346 147.872 21.466 148.312C21.3287 148.985 21.1914 149.657 21.0952 150.289L20.3538 154.806C20.2302 155.616 20.1066 156.426 19.983 157.415L19.9281 157.772C19.8183 158.609 19.7085 159.433 19.6261 160.243L19.5986 160.504C19.5025 161.355 19.4064 162.193 19.324 163.017C19.2416 163.854 19.173 164.678 19.0906 165.68C19.0631 165.982 19.0357 166.271 19.022 166.49C18.967 167.039 18.9258 167.602 18.9121 168.097C18.8572 168.66 18.8297 169.236 18.8023 169.868L18.61 174.344C18.5826 175.25 18.5551 176.156 18.5551 177.172C18.5276 177.886 18.5276 178.586 18.5276 179.3C18.5276 180.014 18.5276 180.714 18.5551 181.374L19.4476 181.346L19.4339 181.264ZM26.6561 144.824L27.5898 144.769C27.9605 143.136 28.3587 141.447 28.7843 139.772L29.4159 137.383C29.4571 137.245 29.4983 137.108 29.5258 137.039C29.7455 136.243 29.9651 135.461 30.2123 134.65C30.4595 133.813 30.7066 132.975 30.9812 132.138C31.2284 131.342 31.4755 130.559 31.7226 129.818C31.7776 129.68 31.8188 129.57 31.8325 129.515C32.0796 128.76 32.3405 128.019 32.6289 127.181C33.2467 125.424 33.9058 123.639 34.5923 121.868L34.7022 121.593C34.9356 121.003 35.1553 120.426 35.375 119.891L35.4848 119.644C35.8006 118.888 36.1164 118.133 36.4322 117.378C36.7755 116.596 37.1187 115.799 37.4895 114.975C37.8327 114.179 38.1897 113.396 38.5604 112.628L38.7664 112.188C39.1234 111.433 39.4804 110.678 39.8648 109.923C40.5376 108.55 41.2104 107.204 41.8832 105.941C41.9519 105.818 42.0205 105.708 42.048 105.625C42.6933 104.39 43.421 103.072 44.3273 101.493C44.8216 100.628 45.3158 99.7626 45.8376 98.8976L102.023 133.085L131.104 149.3C109.794 163.264 77.2667 169.14 28.6882 174.481C26.2442 174.756 24.3905 176.829 24.3905 179.314C24.3905 181.799 26.2304 183.817 28.6882 184.092C75.2895 189.213 106.677 194.705 128.097 207.392L101.35 224.499L45.5904 259.14C43.421 255.474 41.3752 251.671 39.5216 247.827C39.1508 247.071 38.7801 246.303 38.4231 245.506L37.6954 243.941C37.5718 243.68 37.4483 243.419 37.3384 243.145L37.1462 242.692C36.9677 242.293 36.7892 241.895 36.6244 241.497L35.526 238.888C35.1278 237.914 34.7296 236.939 34.3177 235.84C34.0705 235.223 33.8371 234.605 33.59 233.918C33.3703 233.369 33.178 232.82 32.9721 232.243C32.7387 231.625 32.5328 230.994 32.2993 230.335C32.0934 229.758 31.9011 229.181 31.7089 228.563C31.4755 227.863 31.2421 227.163 31.0361 226.477L29.6768 221.904C29.5532 221.479 29.4296 221.039 29.3198 220.6L29.2374 220.312C29.1138 219.859 28.9902 219.392 28.8392 218.815C28.7843 218.623 28.7294 218.431 28.6607 218.156C28.5372 217.703 28.4273 217.25 28.3175 216.742C28.1802 216.207 28.0566 215.685 27.933 215.108C27.7682 214.394 27.5898 213.68 27.4387 212.925C27.274 212.225 27.1366 211.525 26.9444 210.618C26.7934 209.904 26.6561 209.19 26.5325 208.504L25.9284 205.058C25.8323 204.467 25.7362 203.877 25.64 203.273L25.5714 202.861C25.4615 202.161 25.3654 201.46 25.2556 200.65L25.1732 200.033C25.1183 199.648 25.0771 199.264 25.0222 198.852L24.9947 198.577C24.926 198.055 24.8574 197.52 24.8025 196.957C24.7201 196.257 24.6514 195.557 24.569 194.843C24.4043 193.126 24.2532 191.314 24.1297 189.433C24.0748 188.541 24.0198 187.634 23.9787 186.715C23.9375 185.808 23.8963 184.888 23.8688 183.955C23.8413 183.09 23.8139 182.225 23.8139 181.181C23.8002 180.536 23.8002 179.863 23.8002 179.218C23.8002 178.573 23.8002 177.9 23.8276 177.186L23.8276 177.049C23.8276 176.17 23.8551 175.305 23.8825 174.454L24.0748 170.06C24.1022 169.538 24.1297 169.003 24.1846 168.399C24.2121 167.891 24.2533 167.396 24.2944 166.82L24.3631 165.886C24.4318 165.09 24.5004 164.307 24.5828 163.483C24.6514 162.715 24.7475 161.946 24.8437 161.039L24.8711 160.765C24.9398 160.12 25.0221 159.461 25.1045 158.843L25.1457 158.472C25.1732 158.293 25.2006 158.115 25.2281 157.868C25.3379 157.085 25.4478 156.316 25.5577 155.575L25.6263 155.122C25.7362 154.408 25.846 153.708 25.9696 153.007L26.0382 152.65C26.1206 152.156 26.203 151.662 26.3128 151.126C26.4089 150.522 26.5188 149.918 26.6561 149.232C26.7385 148.792 26.8209 148.353 26.9307 147.872L27.0131 147.502C27.1778 146.692 27.3563 145.868 27.5486 144.989L26.6698 144.797L26.6561 144.824ZM338.311 177.241C338.325 177.9 338.325 178.559 338.325 179.232C338.325 179.904 338.325 180.55 338.311 181.236C337.968 208.559 330.512 235.36 316.727 258.797L295.444 244.614L247.305 215.314L247.333 215.287L242.129 212.156L241.332 211.758L233.918 207.447C255.324 194.733 286.767 189.227 333.45 184.092C335.894 183.818 337.748 181.744 337.748 179.259C337.748 176.774 335.908 174.756 333.45 174.481C285.613 169.223 253.525 163.483 232.133 150.014L259.786 132.316L315.56 97.6619C330.1 121.58 337.981 149.094 338.325 177.241L338.311 177.241Z" fill="#F6FBFD" fill-opacity="0.5"/>
<mask id="path-2-inside-1_280_3601" fill="white">
<path d="M183.288 358.682L183.261 357.789L183.412 358.682C184.428 358.682 185.43 358.654 186.419 358.613C187.284 358.586 188.149 358.545 189 358.517L189.522 358.49C190.565 358.448 191.609 358.38 192.638 358.311C194.849 358.174 196.867 358.009 198.803 357.817C199.627 357.734 200.437 357.652 201.233 357.556L201.577 357.515C202.098 357.46 202.606 357.405 203.059 357.336L205.682 357.007C206.437 356.897 207.206 356.787 207.975 356.677C208.812 356.554 209.636 356.416 210.46 356.279L214.373 355.592C215.21 355.428 216.062 355.277 217.091 355.057C217.888 354.892 218.684 354.727 219.439 354.549C220.277 354.37 221.101 354.178 221.911 353.986L222.158 353.931C222.721 353.807 223.284 353.684 223.847 353.533C224.382 353.409 224.904 353.272 225.357 353.148C225.673 353.08 225.988 352.997 226.222 352.929C226.881 352.764 227.526 352.586 228.144 352.421C228.652 352.283 229.174 352.146 229.709 351.995L234.858 350.457C235.668 350.21 236.492 349.949 237.261 349.688C237.947 349.469 238.648 349.235 239.307 349.002C240.034 348.755 240.762 348.508 241.462 348.26C242.121 348.027 242.78 347.78 243.384 347.546C244.112 347.286 244.84 347.011 245.677 346.681C246.817 346.242 247.956 345.789 249.069 345.322L251.801 344.182C252.35 343.935 252.899 343.702 253.503 343.441L253.751 343.331C254.135 343.166 254.506 343.002 254.876 342.823L256.593 342.027C257.499 341.601 258.405 341.175 259.27 340.75C264.542 338.196 269.76 335.34 274.744 332.264C327.563 299.833 359.554 243.524 360.336 181.696C360.377 180.144 360.377 178.538 360.336 177.069C359.567 115.034 327.453 58.6567 274.442 26.239C247.064 9.48778 215.554 0.425645 183.343 0.027461C182.574 0 181.778 0 181.009 0C180.24 0 179.444 0 178.702 0.027461C145.586 0.439376 113.334 9.95461 85.4348 27.5708C33.7414 60.1808 2.42334 116.064 1.68192 177.027C1.65445 177.796 1.65445 178.579 1.65445 179.362C1.65445 180.144 1.65445 180.927 1.68192 181.668C2.45081 243.332 34.2769 299.545 86.8215 332.031C88.5789 333.116 90.3913 334.187 92.3272 335.299C94.1396 336.329 95.6361 337.166 97.0915 337.908L97.2975 338.017C98.643 338.731 100.071 339.459 101.924 340.365C102.735 340.764 103.558 341.162 104.533 341.629L105.027 341.862C105.934 342.288 106.84 342.7 107.719 343.084C108.625 343.496 109.545 343.894 110.423 344.265C111.302 344.649 112.167 345.02 113.252 345.459C114.048 345.789 114.872 346.118 115.654 346.407C117.659 347.203 119.664 347.945 121.572 348.604C122.492 348.933 123.398 349.249 124.346 349.551L124.579 349.633C125.485 349.936 126.391 350.224 127.284 350.498C128.245 350.801 129.22 351.103 130.167 351.377C131.087 351.652 131.993 351.913 132.954 352.174L136.002 352.997C137.952 353.492 139.888 353.959 141.989 354.439C142.963 354.659 143.938 354.865 144.831 355.03C145.531 355.194 146.245 355.332 146.849 355.428C147.59 355.592 148.332 355.73 149.032 355.84C149.691 355.963 150.35 356.073 151.133 356.21C152.025 356.361 152.945 356.526 154.002 356.663C154.908 356.801 155.801 356.938 156.858 357.075L157.462 357.158C158.327 357.268 159.178 357.377 159.989 357.46C161.018 357.583 162.062 357.707 163.078 357.803C164.011 357.899 164.959 357.982 166.002 358.064C166.332 358.091 166.661 358.133 166.895 358.133C167.499 358.188 168.13 358.242 168.666 358.256C169.311 358.311 169.97 358.352 170.616 358.38L175.558 358.599C176.561 358.627 177.563 358.654 178.702 358.668C179.471 358.696 180.254 358.696 181.023 358.696C181.792 358.696 182.574 358.696 183.302 358.668L183.288 358.682ZM167.307 352.888L166.277 352.805C165.384 352.737 164.506 352.654 163.6 352.558C162.611 352.462 161.622 352.366 160.593 352.229C159.714 352.132 158.849 352.023 158.066 351.926C157.833 351.885 157.586 351.858 157.407 351.83C156.542 351.72 155.691 351.597 154.854 351.46C154.716 351.432 154.593 351.418 154.538 351.418C153.686 351.295 152.849 351.158 151.915 350.993C151.284 350.883 150.638 350.773 149.966 350.65C149.293 350.54 148.634 350.416 147.879 350.251C147.247 350.141 146.629 350.018 145.929 349.867C145.009 349.702 144.089 349.496 143.224 349.304C143.101 349.263 142.977 349.249 142.895 349.222C141.096 348.823 139.229 348.37 137.362 347.89L134.341 347.066C133.462 346.832 132.583 346.572 131.705 346.311C130.771 346.036 129.837 345.761 128.89 345.446C128.121 345.212 127.366 344.965 126.611 344.718L126.336 344.636C126.185 344.581 126.048 344.526 125.979 344.512C125.114 344.237 124.263 343.935 123.371 343.606C121.503 342.96 119.567 342.246 117.59 341.464C116.821 341.175 116.066 340.873 115.05 340.448C114.227 340.118 113.416 339.789 112.565 339.404C111.686 339.034 110.808 338.649 109.915 338.251C109.037 337.866 108.172 337.468 107.32 337.07L106.84 336.837C106.002 336.438 105.165 336.04 104.313 335.628C102.501 334.736 101.114 334.036 99.9062 333.39C99.7689 333.308 99.6453 333.239 99.5766 333.212C98.2036 332.484 96.7483 331.688 94.9908 330.699C93.0961 329.614 91.3524 328.585 89.6361 327.514C38.6293 295.988 7.73685 241.423 6.99542 181.545C6.96796 180.831 6.96793 180.13 6.96793 179.416V179.018C6.96793 178.387 6.96796 177.783 6.99542 177.123C7.72311 117.918 38.1212 63.6821 88.2906 32.0195C115.366 14.9251 146.67 5.68443 178.84 5.28624C179.581 5.25878 180.309 5.25878 181.037 5.25878C181.764 5.25878 182.492 5.25878 183.261 5.28624C214.551 5.6707 245.142 14.4719 271.709 30.7289C323.142 62.1992 354.309 116.929 355.05 177.165C355.064 177.865 355.078 178.579 355.078 179.348C355.078 180.117 355.078 180.817 355.05 181.586C354.295 241.629 323.238 296.29 271.984 327.788C267.137 330.768 262.085 333.541 256.95 336.027C256.112 336.438 255.261 336.85 254.382 337.249L252.652 338.045C252.309 338.21 251.966 338.361 251.622 338.512L251.279 338.663C250.757 338.896 250.249 339.13 249.728 339.349L247.064 340.461C245.993 340.915 244.908 341.354 243.686 341.807C243 342.068 242.313 342.343 241.558 342.603C240.94 342.837 240.336 343.07 239.691 343.29C239.156 343.482 238.606 343.674 238.057 343.867L237.577 344.031C236.931 344.265 236.286 344.471 235.613 344.69C234.844 344.951 234.062 345.198 233.293 345.446L228.158 346.983L226.73 347.368C226.14 347.533 225.549 347.684 224.863 347.862C224.629 347.931 224.396 347.986 224.08 348.068C223.572 348.205 223.078 348.329 222.515 348.453C222.021 348.576 221.526 348.686 221.018 348.81L220.702 348.878C219.92 349.057 219.124 349.249 218.286 349.427C217.517 349.606 216.734 349.771 215.952 349.922L215.718 349.977C215.046 350.114 214.373 350.251 213.7 350.375L209.581 351.103C208.771 351.24 207.961 351.363 207.151 351.487C206.423 351.597 205.682 351.707 204.94 351.803L203.993 351.926C203.567 351.981 203.156 352.036 202.73 352.091L202.359 352.132C201.796 352.215 201.22 352.27 200.616 352.338C199.833 352.434 199.064 352.517 198.268 352.586C196.387 352.778 194.423 352.929 192.281 353.066C191.293 353.121 190.277 353.19 189.275 353.231L188.753 353.258C187.915 353.299 187.078 353.327 186.226 353.354C185.265 353.382 184.304 353.409 183.151 353.423C182.423 353.451 181.696 353.451 180.982 353.451C180.268 353.451 179.513 353.451 178.785 353.423H178.593C177.618 353.423 176.657 353.382 175.709 353.354L170.863 353.135C170.272 353.107 169.682 353.08 169.023 353.011C168.474 352.984 167.911 352.943 167.293 352.888H167.307Z"/>
</mask>
<path d="M183.288 358.682L183.261 357.789L183.412 358.682C184.428 358.682 185.43 358.654 186.419 358.613C187.284 358.586 188.149 358.545 189 358.517L189.522 358.49C190.565 358.448 191.609 358.38 192.638 358.311C194.849 358.174 196.867 358.009 198.803 357.817C199.627 357.734 200.437 357.652 201.233 357.556L201.577 357.515C202.098 357.46 202.606 357.405 203.059 357.336L205.682 357.007C206.437 356.897 207.206 356.787 207.975 356.677C208.812 356.554 209.636 356.416 210.46 356.279L214.373 355.592C215.21 355.428 216.062 355.277 217.091 355.057C217.888 354.892 218.684 354.727 219.439 354.549C220.277 354.37 221.101 354.178 221.911 353.986L222.158 353.931C222.721 353.807 223.284 353.684 223.847 353.533C224.382 353.409 224.904 353.272 225.357 353.148C225.673 353.08 225.988 352.997 226.222 352.929C226.881 352.764 227.526 352.586 228.144 352.421C228.652 352.283 229.174 352.146 229.709 351.995L234.858 350.457C235.668 350.21 236.492 349.949 237.261 349.688C237.947 349.469 238.648 349.235 239.307 349.002C240.034 348.755 240.762 348.508 241.462 348.26C242.121 348.027 242.78 347.78 243.384 347.546C244.112 347.286 244.84 347.011 245.677 346.681C246.817 346.242 247.956 345.789 249.069 345.322L251.801 344.182C252.35 343.935 252.899 343.702 253.503 343.441L253.751 343.331C254.135 343.166 254.506 343.002 254.876 342.823L256.593 342.027C257.499 341.601 258.405 341.175 259.27 340.75C264.542 338.196 269.76 335.34 274.744 332.264C327.563 299.833 359.554 243.524 360.336 181.696C360.377 180.144 360.377 178.538 360.336 177.069C359.567 115.034 327.453 58.6567 274.442 26.239C247.064 9.48778 215.554 0.425645 183.343 0.027461C182.574 0 181.778 0 181.009 0C180.24 0 179.444 0 178.702 0.027461C145.586 0.439376 113.334 9.95461 85.4348 27.5708C33.7414 60.1808 2.42334 116.064 1.68192 177.027C1.65445 177.796 1.65445 178.579 1.65445 179.362C1.65445 180.144 1.65445 180.927 1.68192 181.668C2.45081 243.332 34.2769 299.545 86.8215 332.031C88.5789 333.116 90.3913 334.187 92.3272 335.299C94.1396 336.329 95.6361 337.166 97.0915 337.908L97.2975 338.017C98.643 338.731 100.071 339.459 101.924 340.365C102.735 340.764 103.558 341.162 104.533 341.629L105.027 341.862C105.934 342.288 106.84 342.7 107.719 343.084C108.625 343.496 109.545 343.894 110.423 344.265C111.302 344.649 112.167 345.02 113.252 345.459C114.048 345.789 114.872 346.118 115.654 346.407C117.659 347.203 119.664 347.945 121.572 348.604C122.492 348.933 123.398 349.249 124.346 349.551L124.579 349.633C125.485 349.936 126.391 350.224 127.284 350.498C128.245 350.801 129.22 351.103 130.167 351.377C131.087 351.652 131.993 351.913 132.954 352.174L136.002 352.997C137.952 353.492 139.888 353.959 141.989 354.439C142.963 354.659 143.938 354.865 144.831 355.03C145.531 355.194 146.245 355.332 146.849 355.428C147.59 355.592 148.332 355.73 149.032 355.84C149.691 355.963 150.35 356.073 151.133 356.21C152.025 356.361 152.945 356.526 154.002 356.663C154.908 356.801 155.801 356.938 156.858 357.075L157.462 357.158C158.327 357.268 159.178 357.377 159.989 357.46C161.018 357.583 162.062 357.707 163.078 357.803C164.011 357.899 164.959 357.982 166.002 358.064C166.332 358.091 166.661 358.133 166.895 358.133C167.499 358.188 168.13 358.242 168.666 358.256C169.311 358.311 169.97 358.352 170.616 358.38L175.558 358.599C176.561 358.627 177.563 358.654 178.702 358.668C179.471 358.696 180.254 358.696 181.023 358.696C181.792 358.696 182.574 358.696 183.302 358.668L183.288 358.682ZM167.307 352.888L166.277 352.805C165.384 352.737 164.506 352.654 163.6 352.558C162.611 352.462 161.622 352.366 160.593 352.229C159.714 352.132 158.849 352.023 158.066 351.926C157.833 351.885 157.586 351.858 157.407 351.83C156.542 351.72 155.691 351.597 154.854 351.46C154.716 351.432 154.593 351.418 154.538 351.418C153.686 351.295 152.849 351.158 151.915 350.993C151.284 350.883 150.638 350.773 149.966 350.65C149.293 350.54 148.634 350.416 147.879 350.251C147.247 350.141 146.629 350.018 145.929 349.867C145.009 349.702 144.089 349.496 143.224 349.304C143.101 349.263 142.977 349.249 142.895 349.222C141.096 348.823 139.229 348.37 137.362 347.89L134.341 347.066C133.462 346.832 132.583 346.572 131.705 346.311C130.771 346.036 129.837 345.761 128.89 345.446C128.121 345.212 127.366 344.965 126.611 344.718L126.336 344.636C126.185 344.581 126.048 344.526 125.979 344.512C125.114 344.237 124.263 343.935 123.371 343.606C121.503 342.96 119.567 342.246 117.59 341.464C116.821 341.175 116.066 340.873 115.05 340.448C114.227 340.118 113.416 339.789 112.565 339.404C111.686 339.034 110.808 338.649 109.915 338.251C109.037 337.866 108.172 337.468 107.32 337.07L106.84 336.837C106.002 336.438 105.165 336.04 104.313 335.628C102.501 334.736 101.114 334.036 99.9062 333.39C99.7689 333.308 99.6453 333.239 99.5766 333.212C98.2036 332.484 96.7483 331.688 94.9908 330.699C93.0961 329.614 91.3524 328.585 89.6361 327.514C38.6293 295.988 7.73685 241.423 6.99542 181.545C6.96796 180.831 6.96793 180.13 6.96793 179.416V179.018C6.96793 178.387 6.96796 177.783 6.99542 177.123C7.72311 117.918 38.1212 63.6821 88.2906 32.0195C115.366 14.9251 146.67 5.68443 178.84 5.28624C179.581 5.25878 180.309 5.25878 181.037 5.25878C181.764 5.25878 182.492 5.25878 183.261 5.28624C214.551 5.6707 245.142 14.4719 271.709 30.7289C323.142 62.1992 354.309 116.929 355.05 177.165C355.064 177.865 355.078 178.579 355.078 179.348C355.078 180.117 355.078 180.817 355.05 181.586C354.295 241.629 323.238 296.29 271.984 327.788C267.137 330.768 262.085 333.541 256.95 336.027C256.112 336.438 255.261 336.85 254.382 337.249L252.652 338.045C252.309 338.21 251.966 338.361 251.622 338.512L251.279 338.663C250.757 338.896 250.249 339.13 249.728 339.349L247.064 340.461C245.993 340.915 244.908 341.354 243.686 341.807C243 342.068 242.313 342.343 241.558 342.603C240.94 342.837 240.336 343.07 239.691 343.29C239.156 343.482 238.606 343.674 238.057 343.867L237.577 344.031C236.931 344.265 236.286 344.471 235.613 344.69C234.844 344.951 234.062 345.198 233.293 345.446L228.158 346.983L226.73 347.368C226.14 347.533 225.549 347.684 224.863 347.862C224.629 347.931 224.396 347.986 224.08 348.068C223.572 348.205 223.078 348.329 222.515 348.453C222.021 348.576 221.526 348.686 221.018 348.81L220.702 348.878C219.92 349.057 219.124 349.249 218.286 349.427C217.517 349.606 216.734 349.771 215.952 349.922L215.718 349.977C215.046 350.114 214.373 350.251 213.7 350.375L209.581 351.103C208.771 351.24 207.961 351.363 207.151 351.487C206.423 351.597 205.682 351.707 204.94 351.803L203.993 351.926C203.567 351.981 203.156 352.036 202.73 352.091L202.359 352.132C201.796 352.215 201.22 352.27 200.616 352.338C199.833 352.434 199.064 352.517 198.268 352.586C196.387 352.778 194.423 352.929 192.281 353.066C191.293 353.121 190.277 353.19 189.275 353.231L188.753 353.258C187.915 353.299 187.078 353.327 186.226 353.354C185.265 353.382 184.304 353.409 183.151 353.423C182.423 353.451 181.696 353.451 180.982 353.451C180.268 353.451 179.513 353.451 178.785 353.423H178.593C177.618 353.423 176.657 353.382 175.709 353.354L170.863 353.135C170.272 353.107 169.682 353.08 169.023 353.011C168.474 352.984 167.911 352.943 167.293 352.888H167.307Z" fill="#F6FBFD" fill-opacity="0.5" stroke="#F6F6F7" stroke-width="0.172381" mask="url(#path-2-inside-1_280_3601)"/>
</g>
<g clip-path="url(#clip1_280_3601)">
<path d="M360.262 178.964L359.37 178.992L360.262 178.839C360.262 177.813 360.235 176.8 360.194 175.801C360.166 174.926 360.125 174.052 360.098 173.192L360.07 172.665C360.029 171.61 359.96 170.555 359.892 169.515C359.754 167.281 359.59 165.241 359.398 163.284C359.315 162.452 359.233 161.633 359.137 160.828L359.096 160.481C359.041 159.954 358.986 159.441 358.917 158.983L358.588 156.332C358.478 155.569 358.368 154.792 358.258 154.015C358.135 153.169 357.998 152.336 357.86 151.503L357.174 147.549C357.009 146.702 356.858 145.842 356.639 144.801C356.474 143.996 356.309 143.192 356.131 142.428C355.953 141.582 355.76 140.749 355.568 139.931L355.513 139.681C355.39 139.112 355.266 138.543 355.115 137.974C354.992 137.433 354.855 136.906 354.731 136.448C354.663 136.129 354.58 135.809 354.512 135.574C354.347 134.908 354.168 134.255 354.004 133.631C353.866 133.117 353.729 132.59 353.578 132.049L352.041 126.845C351.794 126.027 351.533 125.194 351.272 124.417C351.053 123.723 350.819 123.016 350.586 122.35C350.339 121.614 350.092 120.879 349.845 120.171C349.612 119.505 349.365 118.839 349.131 118.228C348.871 117.493 348.596 116.757 348.267 115.911C347.827 114.759 347.375 113.608 346.908 112.484L345.769 109.722C345.522 109.167 345.288 108.612 345.028 108.002L344.918 107.752C344.753 107.363 344.588 106.989 344.41 106.614L343.614 104.88C343.188 103.964 342.763 103.048 342.337 102.174C339.785 96.8452 336.93 91.5723 333.855 86.5352C301.437 33.1536 245.151 0.822163 183.347 0.0312214C181.796 -0.0104071 180.19 -0.0104071 178.721 0.0312214C116.712 0.808286 60.3569 33.2646 27.9521 86.8405C11.2076 114.51 2.14911 146.355 1.75108 178.909C1.72363 179.686 1.72363 180.491 1.72363 181.268C1.72363 182.045 1.72363 182.85 1.75108 183.599C2.16283 217.068 11.6743 249.663 29.2835 277.86C61.8804 330.103 117.741 361.755 178.68 362.504C179.449 362.532 180.231 362.532 181.014 362.532C181.796 362.532 182.578 362.532 183.319 362.504C244.958 361.727 301.149 329.562 333.622 276.458C334.706 274.682 335.777 272.85 336.889 270.894C337.918 269.062 338.755 267.55 339.496 266.079L339.606 265.871C340.32 264.511 341.047 263.068 341.953 261.194C342.351 260.376 342.749 259.543 343.216 258.558L343.449 258.058C343.875 257.143 344.286 256.227 344.671 255.339C345.082 254.423 345.48 253.493 345.851 252.605C346.235 251.717 346.606 250.843 347.045 249.747C347.375 248.942 347.704 248.109 347.992 247.318C348.788 245.292 349.529 243.266 350.188 241.338C350.518 240.408 350.833 239.492 351.135 238.535L351.217 238.299C351.519 237.383 351.808 236.467 352.082 235.565C352.384 234.594 352.686 233.609 352.961 232.651C353.235 231.721 353.496 230.806 353.757 229.834L354.58 226.754C355.074 224.783 355.541 222.827 356.021 220.704C356.241 219.719 356.447 218.733 356.611 217.831C356.776 217.124 356.913 216.402 357.009 215.792C357.174 215.042 357.311 214.293 357.421 213.585C357.545 212.919 357.655 212.253 357.792 211.462C357.943 210.56 358.107 209.631 358.245 208.562C358.382 207.646 358.519 206.744 358.656 205.676L358.739 205.065C358.849 204.191 358.958 203.331 359.041 202.512C359.164 201.471 359.288 200.417 359.384 199.39C359.48 198.446 359.562 197.489 359.645 196.434C359.672 196.101 359.713 195.768 359.713 195.532C359.768 194.922 359.823 194.284 359.837 193.742C359.892 193.09 359.933 192.424 359.96 191.772L360.18 186.777C360.207 185.764 360.235 184.751 360.249 183.599C360.276 182.822 360.276 182.031 360.276 181.254C360.276 180.477 360.276 179.686 360.249 178.95L360.262 178.964ZM354.47 195.116L354.388 196.157C354.319 197.059 354.237 197.947 354.141 198.863C354.045 199.862 353.949 200.861 353.812 201.902C353.715 202.79 353.606 203.664 353.51 204.455C353.468 204.691 353.441 204.941 353.413 205.121C353.304 205.995 353.18 206.855 353.043 207.702C353.015 207.841 353.002 207.966 353.002 208.021C352.878 208.881 352.741 209.728 352.576 210.671C352.466 211.31 352.357 211.962 352.233 212.642C352.123 213.322 352 213.988 351.835 214.751C351.725 215.389 351.602 216.014 351.451 216.721C351.286 217.651 351.08 218.581 350.888 219.455C350.847 219.58 350.833 219.705 350.806 219.788C350.408 221.606 349.955 223.493 349.474 225.38L348.651 228.433C348.418 229.321 348.157 230.209 347.896 231.097C347.622 232.041 347.347 232.984 347.031 233.942C346.798 234.719 346.551 235.482 346.304 236.245L346.222 236.523C346.167 236.675 346.112 236.814 346.098 236.883C345.824 237.758 345.522 238.618 345.192 239.52C344.547 241.407 343.833 243.364 343.051 245.362C342.763 246.139 342.461 246.902 342.035 247.929C341.706 248.761 341.377 249.58 340.992 250.44C340.622 251.329 340.237 252.217 339.839 253.119C339.455 254.007 339.057 254.881 338.659 255.741L338.426 256.227C338.028 257.073 337.63 257.92 337.218 258.78C336.326 260.612 335.626 262.013 334.981 263.234C334.898 263.373 334.83 263.498 334.802 263.567C334.075 264.955 333.279 266.426 332.291 268.202C331.206 270.117 330.177 271.879 329.107 273.614C297.594 325.164 243.051 356.385 183.196 357.134C182.482 357.162 181.782 357.162 181.068 357.162H180.67C180.039 357.162 179.435 357.162 178.776 357.134C119.594 356.399 65.3803 325.677 33.7304 274.973C16.6427 247.61 7.40579 215.972 7.00776 183.46C6.98031 182.711 6.98031 181.975 6.98031 181.24C6.98031 180.505 6.98031 179.769 7.00776 178.992C7.39207 147.368 16.1898 116.452 32.4402 89.6018C63.898 37.6217 118.606 6.12286 178.818 5.37354C179.518 5.35967 180.231 5.34579 181 5.34579C181.768 5.34579 182.468 5.34579 183.237 5.37354C243.257 6.13673 297.896 37.5246 329.381 89.3243C332.359 94.2226 335.132 99.329 337.616 104.519C338.028 105.365 338.44 106.225 338.838 107.114L339.634 108.862C339.798 109.209 339.949 109.556 340.1 109.903L340.251 110.25C340.485 110.777 340.718 111.29 340.937 111.818L342.049 114.51C342.502 115.592 342.941 116.688 343.394 117.923C343.655 118.617 343.93 119.311 344.19 120.074C344.424 120.698 344.657 121.309 344.877 121.961C345.069 122.502 345.261 123.057 345.453 123.612L345.618 124.098C345.851 124.75 346.057 125.402 346.276 126.082C346.537 126.859 346.784 127.65 347.031 128.427L348.569 133.617L348.953 135.06C349.118 135.657 349.269 136.254 349.447 136.947C349.516 137.183 349.57 137.419 349.653 137.738C349.79 138.252 349.914 138.751 350.037 139.32C350.161 139.82 350.27 140.319 350.394 140.833L350.463 141.152C350.641 141.943 350.833 142.748 351.012 143.594C351.19 144.371 351.355 145.162 351.506 145.953L351.561 146.189C351.698 146.869 351.835 147.549 351.959 148.229L352.686 152.391C352.823 153.21 352.947 154.029 353.07 154.848C353.18 155.583 353.29 156.332 353.386 157.082L353.51 158.039C353.564 158.469 353.619 158.886 353.674 159.316L353.715 159.69C353.798 160.259 353.853 160.842 353.921 161.453C354.017 162.244 354.1 163.021 354.168 163.825C354.361 165.726 354.512 167.711 354.649 169.875C354.704 170.875 354.772 171.901 354.813 172.914L354.841 173.442C354.882 174.288 354.91 175.135 354.937 175.995C354.964 176.966 354.992 177.938 355.006 179.103C355.033 179.839 355.033 180.574 355.033 181.296C355.033 182.017 355.033 182.78 355.006 183.516V183.71C355.006 184.695 354.964 185.667 354.937 186.624L354.717 191.522C354.69 192.119 354.663 192.716 354.594 193.382C354.566 193.937 354.525 194.506 354.47 195.13V195.116Z" fill="url(#paint0_linear_280_3601)"/>
</g>
<defs>
<linearGradient id="paint0_linear_280_3601" x1="181" y1="0" x2="181" y2="362.532" gradientUnits="userSpaceOnUse">
<stop stop-color="#C9D92D"/>
<stop offset="0.100962" stop-color="#F6FBFD" stop-opacity="0"/>
<stop offset="0.451923" stop-color="#F6FBFD" stop-opacity="0"/>
</linearGradient>
<clipPath id="clip0_280_3601">
<rect width="358.696" height="358.696" fill="white" transform="matrix(0 1 -1 0 360.276 0)"/>
</clipPath>
<clipPath id="clip1_280_3601">
<rect width="358.552" height="183.586" fill="white" transform="translate(1.72363)"/>
</clipPath>
</defs>
</svg>
